<?xml version="1.0" encoding="utf-8"?>
<!-- Generator: Adobe Illustrator 18.1.1, SVG Export Plug-In . SVG Version: 6.00 Build 0)  -->
<!DOCTYPE svg PUBLIC "-//W3C//DTD SVG 1.1//EN" "http://www.w3.org/Graphics/SVG/1.1/DTD/svg11.dtd">
<svg version="1.1" id="Layer_1" xmlns="http://www.w3.org/2000/svg" xmlns:xlink="http://www.w3.org/1999/xlink" x="0px" y="0px"
	 width="230px" height="251.7px" viewBox="100 -110.7 230 251.7" enable-background="new 100 -110.7 230 251.7"
	 xml:space="preserve" preserveAspectRatio="xMidYMid meet">
<g>
	<path d="M108.7,125.7v14.6h-2v-14.6H108.7z"/>
	<path d="M138.4,136.3v-10.5h2V141L129.5,130v10.4h-2v-15.2L138.4,136.3z"/>
	<path d="M166.5,128.6c-1.1-1.1-1.6-1.3-2.7-1.3c-1.4,0-2.4,0.7-2.4,1.7c0,0.9,0.7,1.5,2.6,2.3c1.7,0.7,2.1,1,3.2,2
		c0.9,0.9,1.3,2,1.3,3.2c0,2.4-2,4.4-4.5,4.4c-1.6,0-2.9-0.6-4-1.7c-0.6-0.7-0.9-1.1-1.4-2.3l2-0.6c0.8,1.7,1.8,2.5,3.3,2.5
		c1.5,0,2.5-1,2.5-2.3c0-0.6-0.3-1.3-0.9-1.8c-0.4-0.4-1-0.8-2.2-1.2c-1.5-0.6-1.9-0.8-2.8-1.7c-0.8-0.8-1.2-1.7-1.2-2.6
		c0-2.1,1.9-3.8,4.3-3.8c0.9,0,1.9,0.2,2.8,0.7c0.8,0.4,1.1,0.6,1.7,1.4L166.5,128.6z"/>
	<path d="M194.7,125.7v2h-3.5v12.6h-2v-12.6h-3.5v-2H194.7z"/>
	<path d="M214.7,125.7v14.6h-2v-14.6H214.7z"/>
	<path d="M241.7,125.7v2h-3.5v12.6h-2v-12.6h-3.5v-2H241.7z"/>
	<path d="M261.7,125.7v9c0,2.7,1.3,4.2,3.7,4.2c2.4,0,3.7-1.4,3.7-3.8v-9.3h2v9.2c0,3.6-2.2,5.9-5.6,5.9c-1.7,0-3-0.5-4-1.5
		c-1.2-1.2-1.7-2.6-1.7-4.9v-8.7H261.7z"/>
	<path d="M297.8,125.7v2h-3.5v12.6h-2v-12.6h-3.5v-2H297.8z"/>
	<path d="M323.8,125.7v2h-6.1v3.6h6.1v2h-6.1v5h6.1v2h-8.1v-14.6H323.8z"/>
	<g>
		<g>
			<path d="M306.6-63.7c0,1.4,0,2.8-0.1,4.1h12.1l-12-12V-63.7z M274.7,19.8c-20.9,21.8-50.2,33.8-82.6,33.8
				c-24.5,0-48.1-7.6-68.1-21.8c22.6,22.3,51.9,34.6,82.7,34.6c31.9,0,60.7-11.8,81.2-33.2c20.2-21.1,31.3-50.3,31.3-82.2
				c0,0,0-7.2,0-8.6h-12.9C305.1-27.6,294-0.3,274.7,19.8z M271.6-45h-45.5v12.8h43.5C270.7-36.4,271.4-40.7,271.6-45z M273.4-44.3
				c-0.2,4.1-0.9,8.1-1.9,12.1h14.1L273.4-44.3z M247.4,5.1c-15.4,13.4-34.9,21.2-53.3,21.2c-17.4,0-34.3-5.3-49-15.2
				c17.5,18.1,40,28,63.6,28c18,0,37-7.6,52.1-20.7c15.6-13.6,24.6-30.8,25.4-48.7H271C267.2-17.3,259.1-5.1,247.4,5.1z M304.7-59.5
				c0-1.4,0.1-2.8,0.1-4.1c0,0,0-7.1,0-8.6h-92l12.8,12.8H304.7z M224.3-45h-12l12,12V-45z M128.7-5.4c1.2,1.3,2.5,2.6,3.7,3.8
				C121-18.4,114.6-38.3,114.6-58c0-19,5.2-37.2,14.9-52.7h-20.1c-5,11.9-7.6,24.8-7.6,38.1C101.8-48.4,111.6-23.9,128.7-5.4z
				 M192.2,51.8c31.9,0,60.7-11.8,81.2-33.2c18.9-19.8,29.9-46.7,31.2-76.3h-78.5v10.9h47.4l0,0l0,0v0l14.6,14.6l0,0c0,0,0,0,0,0
				l0,0.9c-0.6,18.7-9.9,36.8-26.1,50.9c-15.4,13.5-34.9,21.2-53.3,21.2c-24.9,0-48.6-10.8-66.7-30.4c-1.4-1.5-2.8-3.1-4.1-4.7
				c-3.7-3-7.2-6.3-10.5-9.9C110-23,100-47.9,100-72.6c0-13.3,2.6-26.2,7.4-38.1H100V-1.1c4.5,8.9,10,17.2,16.5,24.8
				C138,41.9,164.4,51.8,192.2,51.8z M224.3-58.2L211.5-71v24.2h12.8V-58.2z M108.2,15.9c-3-4.2-5.7-8.6-8.2-13.2v4
				c2.2,2.8,4.6,5.5,7.1,8C107.5,15.2,107.8,15.5,108.2,15.9z M227.5,101.5h5l-2.5-6.2L227.5,101.5z M314.7,92.1h-1.1v5.5h1
				c2.3,0,3.5-0.8,3.6-2.9v-0.1C318.2,93.2,316.9,92.1,314.7,92.1z M131.6-110.7C121.7-95.2,116.4-77,116.4-58
				c0,22.2,8.2,44.6,22.8,62.4c16,13,35,20,54.9,20c18,0,37-7.6,52.1-20.7c11.3-9.8,19.1-21.6,22.9-34.1c-18.3,0-44.8,0-44.8,0v0
				L209.7-45c0,0,0,0,0,0v-29.1h96.9l0,0l14.6,14.6l0,0h0v10.4c0,32.4-11.3,62-31.8,83.5c-20.9,21.8-50.2,33.8-82.6,33.8
				c-32.4,0-63.1-13.3-86.4-37.5c-1.8-1.9-3.5-3.8-5.2-5.8c-3.2-2.8-6.4-5.7-9.4-8.8c-2-2.1-3.9-4.2-5.8-6.5v108.3h230v-228.6H131.6
				z M125.7,100.6c0,1.8-1,3.9-1.7,5c-1.1,1.6-2.3,2.9-5.5,3.9c-0.9,0.3-1.9,0.4-2.8,0.4c-3,0-6-1.4-8-3.7
				c-3.2-3.8-2.9-8.4-1.8-11.3c2.8-7.1,9.6-6.8,9.8-6.8c3.4,0,6.5,1.6,8.6,4.9l-3,2.8c-2.4-4.2-7.6-4.3-10.2-0.6
				c-2.5,3.5-0.8,8.8,3.3,9.9c2.9,0.8,5.6-0.4,6.5-3.1h-5v-4.2h9.8V100.6z M147.6,102.1c0,2-1,4.3-1.9,5.3c-1.6,1.6-3.7,2.5-6.2,2.5
				c-3.6,0-4.8-1.1-5.8-1.9c-1.4-1.1-2.5-3.7-2.5-5.6V88.4h4.5v13c0,1.7,1,4.1,3.8,4c2.7-0.2,3.8-1.9,3.8-4.2V88.4h4.5V102.1z
				 M167.6,92.9h-4.9v16.7h-4.6V92.9h-4.8v-4.5h14.2V92.9z M187.1,92.9h-4.9v16.7h-4.6V92.9h-4.8v-4.5h14.2V92.9z M210.7,109.5
				l-1.9-14.9h-0.1l-4.6,14.9h-2.1l-4.7-15h-0.1l-1.7,15h-4.4l2.6-21.2h5.4l3.9,12.7h0.1l3.9-12.7h5.3l2.7,21.2H210.7z M235.8,109.5
				l-1.7-4.2H226l-1.7,4.2h-4.6l8.5-21.2h3.5l8.7,21.2H235.8z M259.4,94.7c-5.4-3.4-9.3-2.1-10.7,0.6c-2,3.9-0.9,9,3.3,9.9
				c2.1,0.5,4.4,0.1,7.4-1.7v5.1c-1.9,0.6-3.9,1.3-6.1,1.3c-6.4,0-10.3-5.3-10.3-10.8c0-4.4,2.8-10.4,9.7-10.9l0.8,0
				c2.1,0,4.4,0.7,6,1.4V94.7z M283.1,109.5h-4.6v-8.4H271v8.4h-4.6V88.4h4.6v8.2h7.5v-8.2h4.6V109.5z M302.2,92.6h-7.4v4.3h7.4v4.1
				h-7.4v4.4h7.4v4.2h-11.9V88.4h11.9V92.6z M319.6,109.5l-5.5-8.2h-0.5v8.2H309V88.4h7c3.6,0,6.1,1.6,6.7,4.8
				c0.6,2.9-0.7,6.4-3.8,7.5l5.9,8.8H319.6z"/>
		</g>
	</g>
</g>
</svg>
