<svg width="39" height="47" fill="none" xmlns="http://www.w3.org/2000/svg"><path d="M37.71 31.789a.94.94 0 0 0-.93-.875h-.603c-.2 0-.54-.114-.698-.238l-4.442-3.454a1.028 1.028 0 0 0-.634-.21c-.248 0-.48.078-.66.227l-1.16.953c-.068.054-.2.05-.262-.01L27.2 27.087c-.226-.22-.602-.361-.953-.361-.104 0-.2.01-.294.036l-.627.166c-.01.003-.021.003-.032.003a.111.111 0 0 1-.107-.088L22.03 11.845c-.09-.426-.48-.819-.907-.914l-8.347-1.896A1.282 1.282 0 0 0 12.462 9c-.333 0-.688.092-.928.24l-5.492 3.423a.992.992 0 0 0-.38 1.222l.76 1.69c.154.344.526.723.87.883l.47.22c.147.067.315.29.34.446l.107.663a.113.113 0 0 1-.017.078.088.088 0 0 1-.068.028l-.61.035-.021.004a.921.921 0 0 1-.56-.23l-.236-.253c-.225-.237-.602-.39-.96-.39-.096 0-.193.011-.28.036l-1.303.34a.895.895 0 0 0-.649 1.091l.273 1.05c.11.424.52.793.956.86l3.117.486a.15.15 0 0 1 .122.166l-.054.361c-.018.118-.154.248-.269.266l-1.891.255c-.394.054-.856.34-1.071.673L3.48 24.486c-.218.334-.29.872-.172 1.248l.667 2.08c.132.407.551.768.974.84l.889.148c.1.018.197.135.197.234v1.414c0 .492.404.893.902.896l3.253.014-.462 1.265c-.068.184-.294.45-.466.55l-2.088 1.2c-.243.142-.645.358-.899.482l-3.654 1.81c-.358.174-.699.536-.605.915.05.202.24.418.623.418.136 0 .29-.032.437-.089l7.136-2.749c.312-.12.75-.393.993-.616L14.3 31.69c.179-.167.28-.39.28-.627a.857.857 0 0 0-.27-.634l-.136-.128a.12.12 0 0 1-.039-.089c0-.024.007-.06.04-.088L16.17 28.2l-.498 1.555c-.096.294-.024.478.05.585.09.12.233.19.39.19.13 0 .27-.049.409-.141l1.97-1.307c.337-.223.61-.698.63-1.099l.022-.418c0-.014.004-.025.004-.028l.029.007 9.722 2.983c.365.114.924.05 1.254-.134l.595-.33c.107-.063.347-.046.447.032l2.62 2.01c.229.173.601.46.83.63l2.179 1.644c.143.11.293.167.44.167.15 0 .29-.06.39-.167.087-.088.183-.252.17-.52l-.112-2.07Z" fill="#406DC0"/></svg>