<svg width="39" height="47" fill="none" xmlns="http://www.w3.org/2000/svg"><path fill-rule="evenodd" clip-rule="evenodd" d="m31.174 11 .539 1.35-1.843 2.392h3.721l.434.506-.772 1.071-.85.345.495.875-1.185.724.235.657h-.774l.539 2.028h-.539l-.304.82h-.675l.36.712-1.406.567-.387 1.212.129 1.008-.13.829-1.028.521-.493 1.433h-.876l.617.6-1.045.65.428.47-.428.873c-.596.17-.881.332-.856.487.025.155.037.382.037.68v.684l.69.58-.259.883.259.817-.69.433.431.793H8.428v-3.506l-.874-.555-.653.555-1.101-.685.26-12.759L5 11h26.174Z" fill="#406DC0"/></svg>