<svg width="39" height="47" fill="none" xmlns="http://www.w3.org/2000/svg"><path d="M9.185 21.589c.182-.26.941.783 1.32.785.218.002-.31-.538-.525-1.232-.157-.51.076-1.393-.07-1.58-.145-.188-.367 1.023-.579 1.323-.211.3-1.093-.445-1.329-1.106-.205-.575-.322-1.32-.91-1.646-1.133-.629-1.42-2.092-1.347-3.21.075-1.132-.54-2.362-1.225-3.098-.602-.646-.655-.915-.296-1.65.685-1.402 1.439-2.921.78-4.486-.041-.097-.046-.438-.034-.549.009-.08.057-.14.152-.14 3.9.157 8.453.4 12.501.562 0 .394-.198 7.205-.29 10.326-.02.623.152 1.042.63 1.465 4.925 4.354 10.118 9.24 14.973 13.67.371.339.607.954.839 1.32.447.707.946 1.022 1.225 1.747-.258.745-.974 1.473-.89 2.165.053.444-.329 1.01-.335 1.44-.007.46.07.827.296 1.22.461.803.42 1.06-.495 1.178-2.27.295-5.549.618-7.82.903-.56.071-.085-.957-1.105-1.406-.42-1.931-1.043-2.604-2.72-3.2-.71-.745-1.367-1.027-2.387-1.249-.16-.035-.657-.18-.73-.306-.567-.981-1.231-.914-2.182-.934a3.086 3.086 0 0 1-.172-.009c-1.532-.116-1.865-.345-1.88-1.846-.409-1.065-.86-2.45-1.59-2.79-.737-1.13-1.251-1.616-2.073-2.693-.293-.384-.41-.79.18-1.13.125-.072.362-.583.229-.874-.142-.31-.596-.423-.927-.59-.398-.201-1.16-.373-.966-1.182.08-.336-.595-.703-.248-1.198Z" fill="#406DC0"/></svg>