<svg width="39" height="47" fill="none" xmlns="http://www.w3.org/2000/svg"><path fill-rule="evenodd" clip-rule="evenodd" d="M31.053 9a.245.245 0 0 0-.054.006L5.194 14.56a.245.245 0 0 0-.19.287l2.043 10.577.072 8.157-1.34 1.835a.245.245 0 0 0 .006.298l1.755 2.193c.079.1.22.121.326.051l5.045-3.363a.249.249 0 0 0 .04-.032l5.138-5.28.559.725a.245.245 0 0 0 .32.062l2.812-1.66 5.514-1.015a.244.244 0 0 0 .066-.022l6.58-3.363a.245.245 0 0 0 .132-.25l-1.024-7.968a.248.248 0 0 0-.006-.032l-1.755-6.58A.245.245 0 0 0 31.053 9Z" fill="#406DC0"/></svg>