<svg width="39" height="47" fill="none" xmlns="http://www.w3.org/2000/svg"><path d="M5 15.728 15.684 5l17.857 18-12.289 12.549L15.923 41l-.08-.604v-.406l.064-.315-.024-.27.056-.451.2-.542.066-.36v-.406l.078-.901-.44-.09v-.27l-.012-.316.012-.226v-.27l.087-.27-.044-.226-.043-.27v-.271l.11-.36-.092-.316-.204-.316-.35.045-.13-.316-.087-.36.046-.27.091-.271.362-.09h.225l.27-.102.361-.04.152-.131-.029-.403v-.27l.125-.316.238-.361v-.27l-1.02-2.254.041-.196.059-.18-.061-.18-.03-.24-.09-.211-.121-.27-.15-.21-.15-.181-.151-.15-.21-.12-.15.18.12.27-.03.15-.21.12-.241.03-.09-.15-.12-.24-.06-.24.03-.18-.091-.181-.12-.21-.15-.211-.12-.148-.211.003h-.18l-.12-.059-.06-.258-.12-.19-.121-.245-.09-.213-.12-.271-.15-.271-.06-.3-.12-.332-.03-.255-.09-.316-.091-.21-.03-.18-.06-.21-.06-.121-.15-.15-.181-.038-.24-.008h-.677l-.375-.161-.33-.107-.301-.144-.3-.192-.331-.036-.271-.153-.36-.212-.331-.24-.15-.272-.3-.21-.211-.21-.21-.181-.151-.15-.09-.24-.09-.211-.06-.18-.06-.21-.09-.211-.15-.21-.211-.18-.15-.15-.15-.181-.181-.21-.15-.271-.24-.24-.09-.271-.121-.24-.06-.15-.06-.211-.202-.3L5 15.727Z" fill="#406DC0"/></svg>