<svg width="39" height="47" fill="none" xmlns="http://www.w3.org/2000/svg"><path d="M27.171 34 28 44.133l-14.996-.364L11 6.673c.293-.074.762-.962.967-1.286.57-.901 1.485-1.186 2.386-1.7.62-.354.901-.77 1.627-.673.527.07.99.287 1.529.319.975.059 1.3.585 2.068.986-1.04.166-.904 1.529-1.305 2.232-.147.257-.472.773-.715.918-.19.112-.698.017-.973.281-.197.188-.229.489-.435.695-.324.322-.604.113-.958.35-.639.425-.42 1.55-.052 2.055.687-.009 1.09.378 1.19 1.04.138.903-.703.986-.84 1.702-.128.666.377.978.795 1.354.52.468.603.92.834 1.563.194.545.456 1.28.866 1.685.523.516.975.597 1.319 1.306.12.25.365.48.441.709.094.279-.033.68-.004.975.042.421.43 1.167.003 1.456l-.06 3.34c.244.42.666.663 1.031.926.474.34.441.449.712.973.24.462.445.655.442 1.241-.003.523-.024 1.005.258 1.46.261.42.704.845 1.03 1.231.411.486.881 1.017 1.31 1.467.59.616 1.948 1.925 2.705.723Z" fill="#406DC0"/></svg>