<svg width="39" height="47" fill="none" xmlns="http://www.w3.org/2000/svg"><path d="m34.184 25.655-.972-.174-.31-1.218-.595-1.058-.938-.593-.393-1.12-.986-1.563-.76-.308-1.903-1.556-1.966-1.891-3.343-2.583-1.213-1.587-.246-.733-1.507-.263-.76-.613-.808-.229.176-1.105L18.036 8h-2.393l-1.947.562-2.327.424-7.297.926-.072.38 5 15.75.885.947.282.772.466.53-.712 1.383v1.563l.519 1.21v3.478l.76 1.394.446.82.923.888 15.056-1.466h.76l.475.984.555.202.583-.482-.31-1.983.2-.974h1.43l.361.364.616-.204.398-.338.291-2.458.693-3.234.938-3.28-.431-.503Z" fill="#406DC0"/></svg>