<svg width="39" height="47" fill="none" xmlns="http://www.w3.org/2000/svg"><path fill-rule="evenodd" clip-rule="evenodd" d="m31.245 25.752 1.575.93 2.29.71 1.62 2.236.371.768.899.502-2.048 1.733h-.972l-1.659 1.12-.76 1.268-1.864-1.008.288-1.809-1.233-2.574.525-.985 1.097-1.12-.518-.97.389-.8Zm-3.752-2.19-.443-1.227-.587-.127-.832-1.005.874-.854.925.854h1.555l1.316 1.005-.264.838-2.544.516Zm-9.862-7.941.624 1.507 1.232 1.345-1.232.269-.624-.637-.978.498-.907-1.422 1.279-1.56h.606ZM8.276 12l.585.472-.585 1.436-.618.575-1.913-1.009v-.724L6.813 12h1.463Zm-5.204.793 1.036.72-1.12 1.57L2 14.386l1.072-1.594Zm19.108 5.835 3.481.301-.622 1.4-3.451-.407.592-1.294Zm.74 2.485h1.482l.6.942-1.62.597v-.77l-.462-.769Z" fill="#406DC0"/></svg>