<svg width="39" height="47" fill="none" xmlns="http://www.w3.org/2000/svg"><path d="m30.31 14.62-.74-1.541a.132.132 0 0 0-.117-.079H4.104a.132.132 0 0 0-.071.05.143.143 0 0 0-.032.107l.925 7.105a.129.129 0 0 0 .028.064L6.14 21.84l.664 3.456c.005.02.014.04.025.057l1.107 1.367-.264 3.7a.132.132 0 0 0 .05.113l1.475 1.225a.147.147 0 0 0 .085.029H27.24l1.971 2.167a.146.146 0 0 0 .1.046h.029a.14.14 0 0 0 .1-.093l1.785-5.87 1.846-2.041 2.077-1.81a.139.139 0 0 0 .047-.1v-1.632a.146.146 0 0 0-.025-.079l-1.471-2.042-4.024-3.748.643-1.86a.14.14 0 0 0-.007-.104Z" fill="#406DC0"/></svg>