<svg width="39" height="47" fill="none" xmlns="http://www.w3.org/2000/svg"><path d="m30.818 27.722-.576-.48-.383-.719-.24-.143h-.048l-.383.24v.047l.048.192-.192.335v.048l.144.24-.671-.096c-.24.096-.336.096-.48.096h-.191c-.048 0-.192 0-.336.048-.192.048-.431.048-.48.048-.047 0-.095-.048-.143-.048-.144-.048-.336-.144-.432-.096-.143.048-.479.48-.527.575-.192-.048-1.055-.24-1.055-.24l-.383.144-.24.288v.048l.096.24-.048.048-.575-.432v-.383l-.288-.336.096-.24V27.1l-.383-.624-.384-.191h-.048l-.287.143c-.096-.095-.384-.335-.384-.335a1.045 1.045 0 0 1-.144-.24c0-.048 0-.048-.047-.096.047-.096.143-.479.143-.479 0-.144-.096-.288-.143-.384-.048-.047-.048-.095-.096-.143h-.24a2.252 2.252 0 0 1-.144-.432.842.842 0 0 0-.192-.24c-.047-.047-.143-.095-.143-.191-.144-.288-.144-.527-.192-.815 0-.192-.048-.384-.096-.575-.096-.288-.384-.432-.623-.623-.048-.048-.144-.096-.192-.144h-.048v.048l-.048.24-.335.383-.384.144-.335.335-.48-.383-.335-.048.191-.72v-.047l-.24-.336.576-.575v-.048l-.096-.192.048-.287v-.048l-.24-.048.096-.527-.192-.24.24-.144v-.048l-.096-.335.288-.96-.096-.239.192-.144.048-.67h-.048l-.863.143-.192-.144c0-.096.048-.24 0-.287-.048-.048-.096-.096-.144-.096-.096-.048-.191.048-.287.096 0 0-.048 0-.048.047v-.287l-.48-.336-.047-.431-.48-.336-.958-1.39-.624-.24-.287-.43-.48-.24.288-.192-.336-.336.192-.24v-.047l-.144-.528-1.102-1.486.048-4.985s0-.048-.048-.048L9.342 5s-.048 0-.048.048l-.431 13.326.431 1.007-.191.383v.048l.719 1.39.767.336.287.767-.719 1.246-.24.959-.479.719v.48l-.24.479-.479.431L8 27.961l.048 1.007s0 .048.048.048l.719.144.288.48c-.096.095-.288.67-.288.67 0 .096-.048.192-.048.288-.048.288-.048.527-.192.863l-.24 9.443c.72 0 1.535.048 2.445.048 2.205.048 4.41.048 6.568.048h2.348s.288 0 11.41-.24l-.288-13.038Z" fill="#406DC0"/></svg>