<svg width="39" height="47" fill="none" xmlns="http://www.w3.org/2000/svg"><path d="m28.841 26.927-.182-1.665.215-1.018-1.616-14.193.307-.191-1.133-2.194L25.69 5 12.36 6.383l2.172 2.866-.618 1.81-1.157 1.616-2.473.817v1.033l.725.83v.757l-.713 1.79L9.33 19.1 9 20.318v1.777l.474 1.67 1.173 1.646 2.066 1.485.548 1.513.59 1.11.73-.391 1.38.175.347.404-.22 1.434-.599 1.36-.138.85.49.722 1.978 1.226 2.096 1.521.294 1.07.398.738-.332.712.786 1.17 1.115.49.479-.896.79-.351 1.603.268.435.28.523-.346v-.576l-.387-.525.185-.6 1.27-1.038.302-1.596v-1.204l.29-2.015 1.111-1.7.523-1.529v-1.075l-.459-1.17Z" fill="#406DC0"/></svg>