<svg width="39" height="47" fill="none" xmlns="http://www.w3.org/2000/svg"><path fill-rule="evenodd" clip-rule="evenodd" d="M26.99 6v.002h-.018L13.929 7.187a.306.306 0 0 0-.142.05l-2.038 1.36-1.937-1.012a.306.306 0 0 0-.447.293l1.368 19.424.182 3.373a.306.306 0 0 0 .057.16l.855 1.197v2.83l-2.512 4.306a.306.306 0 0 0-.04.12l-.273 2.37a.306.306 0 0 0 .371.334l4.743-1.074 1.555.605a.306.306 0 0 0 .277-.029l1.624-1.056 1.011.933a.306.306 0 0 0 .508-.164l.248-1.244 1.382-.921.657.365a.306.306 0 0 0 .149.039h1.46a.306.306 0 0 0 .302-.35l-.167-1.169.732-1.22 2.137-1.513a.306.306 0 0 0 .122-.19l.339-1.69 3.439-2.028a.306.306 0 0 0-.001-.528l-.886-.516.568-1.866a.306.306 0 0 0 .012-.122l-2.28-21.98A.306.306 0 0 0 26.99 6Z" fill="#406DC0"/></svg>