<svg width="39" height="47" fill="none" xmlns="http://www.w3.org/2000/svg"><path fill-rule="evenodd" clip-rule="evenodd" d="M24.924 14a.3.3 0 0 0-.076.008l-2.387.566a.298.298 0 0 0-.23.29v1.26l-1.595.797a.299.299 0 0 0-.135.138l-.657 1.374-1.756 1.212a.298.298 0 0 0-.116.158l-.38 1.25-1.494.11a.298.298 0 0 0-.138.046l-1.296.825-1.282-.116a.298.298 0 0 0-.227.077l-.634.581-1.728-.46a.298.298 0 0 0-.195.014l-2.45 1.068a.298.298 0 0 0-.124.1l-.629.88a.298.298 0 0 0-.035.28l.34.875-1.321.634a.298.298 0 0 0-.168.306l.165 1.319-.233.146-1.888-.472a.298.298 0 0 0-.304.102l-.817 1.005a.298.298 0 0 0-.066.208l.117 1.75-1.098 1.098a.298.298 0 0 0 .207.508L8.452 32a.298.298 0 0 0 .295-.239L9.08 30.1l20.697-1.493a.296.296 0 0 0 .122-.036l3.078-1.696a.298.298 0 0 0 .104-.096l.993-1.488 2.183-2.37a.297.297 0 0 0 .078-.18l.063-.816a.298.298 0 0 0-.093-.24l-2.411-2.288-1.045-2.09a.297.297 0 0 0-.033-.05l-1.382-1.76a.298.298 0 0 0-.393-.068l-1.102.696-1.275-.173a.3.3 0 0 0-.079-.001l-1.262.165-.274-.411a.298.298 0 0 0-.247-.133h-1.11l-.495-1.374a.298.298 0 0 0-.273-.197Z" fill="#406DC0"/></svg>