<svg width="39" height="47" fill="none" xmlns="http://www.w3.org/2000/svg"><path d="m35.668 35.779-1.261-.669-1.624-1.169.228-.884 1.395-1.68.137-1.232-.447-.52-.613.237-1.524 1.01-.594-.38-.509-.792-.869.214-.558.445h-1.664l-.355-.504v-.556l.179-.437 1.037-.861 2.449.707 1.474.134-.489-.536-.454-1.137-.762-.69-.298-.656v-1.261l.313-.566v-.566l-11.726.836-.328-1.695.958-3.258.753-1.343 1.85-2.396.268-.755-1.389-2.448-.32-2.371L3 11.031l.392 6.855 1.475 2.028 1.877 3.88.283 2.069-.787 1.889-.224 1.67.216 1.644-.315.973-.927 1.699.619.874 3.498-.541 2.905.436 1.613.544 2.535-.286.589-1.077.928-.474 1.063.34 3.247 1.745.944 1.309 2.244.394 4.402-.256.633-.77.352-.812.795-.151 1.01.608 1.193.49 1.12 1.075h.558L36 36.4l-.332-.62Z" fill="#406DC0"/></svg>