<svg width="39" height="47" fill="none" xmlns="http://www.w3.org/2000/svg"><path d="M35.911 26.634c0-.044 0-.044 0 0l-.22-.354s-.045-.044-.09-.044l-.486.044c-.044 0-.044.044-.044.089l.089 1.902-.266.62-1.15.309-3.185-1.195-.708-1.813s0-.044-.044-.044l-.708-.487-.265-1.77v-.044l-.708-.752h-.044l-1.416-.708-.177-.265.133-.84.354-.576.486-.22s.045 0 .045-.045l.575-1.371.796-.443c.044 0 .044-.044.044-.088l-1.77-3.362-.043-.044-.885-.133h-.044l-3.318 1.902-17.34-.044c-.045 0-.045 0-.089.044L3 25.395v.045l.044.044 6.193.088.266.487c0 .044.044.044.044.044.044 0 .044 0 .044-.044l.266-.487h12.076l.044 1.637c0 .044.044.044.044.089l.354.044-.044 1.106c0 .044 0 .044.044.044l2.124 1.504.265 1.504c0 .044.044.044.044.044l.62.089 1.282-.266h.045l2.256-1.415.53.088.354 1.106c0 .044.045.044.045.044l.84.089h.044l1.991-.752.973.088h.044l1.903-1.194.265-.442v-.045l-.089-2.3Z" fill="#406DC0"/></svg>