<svg width="39" height="47" fill="none" xmlns="http://www.w3.org/2000/svg"><path d="m36.9 26.686-5.264.118-.819-12.795-6.836.125-6.636-.016-5.506.019-2.461-.005-7.2-.132L2 19.1l1.217-.876 1.36-1.132 1.552-.372 1.055-1.036 2.292.432.858-.737 1.502-.745 2.398.811.944 1.44.608 1.283 1.147.34 1.034.757-.571 1.081 1.654.604 1.462 1.116.634-.485 1.004 1.036-1.014.9-.136.813-1.34.95-.893 2.241 1.05.547 1.286-.44.47 1.409 4.782 2.945-.216-8.697 1.244-3.553.447 7.536L31.95 32l.61-.702 1.841-.195 2.966-3.52-.466-.897Z" fill="#406DC0"/></svg>