<svg width="39" height="47" fill="none" xmlns="http://www.w3.org/2000/svg"><path d="m31.72 25.976-.192-.528s0-.048-.048-.048l-.624-.096.048-.192.336-.624v-.048l-.336-1.728s0-.048-.048-.048c0 0-.048 0-.048.048L30.76 23l-.432.096-.96-.144-.912-.528-.288-.48-.24-2.208s0-.048-.048-.048l-1.536-.576-.528-11.136v-.048L22.984 5.48H22.12l-.672 1.152-1.728.432-1.248-.336-.528-1.056-.768-.624h-.048L16.552 5h-.048l-.672.432-2.736 4.608-2.016 9.792-.096.24-1.056 1.008-.144.528v.048l.192.624v.192l-.768-.24H9.16l-.096.048-.048.048v.624l-1.008-.432H7.96l-.912.384-.048.048.528 7.632.288 7.728v.048l.96 1.248-.048.72v.048l.528.624h.096l1.632-1.392 1.68-2.544.24-1.2.768-.864.864-.432.336.096.384.768.048.048.192.096h.048l.336-.48.24-1.008.192-.048.288.48H16.936l.48-.192.048-.048.384-.768.384-.384.672.24h.048l.24-.096.48-.96.048-.768.384-.72.192-1.104.528-.432.336-.144.144.048.096.72.24.576.048.048.528.144h.048l.528-.24 1.008.72h.048l.48-.192.288-.528.768-.672.528-.048.672-.336.288-.624 1.68-.384h.048l.384-.432.72-.096h.048l.336-.336.816-.144h.048l.624-.528v-.048l.144-.816Z" fill="#406DC0"/></svg>