<svg width="39" height="47" fill="none" xmlns="http://www.w3.org/2000/svg"><path d="m23.911 14.517.812.577.408-.577.391-.253.814.298.953-.43.27-.228-.105-.32-.773-.766-.539-.826-.582-.339h-.502l-1.623-.14-.533-.881-.478-.14-.837.45-1.554.249-1.31.348-1.169.985-1 .156-1.889-.18-1.763-1.225h-1.05l-1.024.311-.17-.557L12.902 8.3 12.538 8l-1.099.28L9.7 9.504l-2.281 2.237-1.506.604L4 13.736l.5.766 6.364 1.463 1.426.652 1.12.812v.978l.474.61.267.742.934.788.336-.765.721-1.843.81-1.078.866-.568.238.905.34.208.453-.739.914-.985 2.794-1.418 1.354.253ZM35.788 28.098l-.824-2.358-.986-1.541-.81-.663h-.623l-.94.578-.428 1.049-.598.663-.443.16-.317-.268-.11-.774.459-.903.613-.794.491-1.42-.233-1.266-.559-1.447-.23-1.154-.914-.817-1.35-.43-1.53-.712h-2.27l-.362.46v.682l.429.586-.296.42-.968.526v1.491l-.344.436-.34-.271-.258-.6-.52.226-.99 1.034-.417 3.314v2.898l.328 1.555.896 1.366.22 1.159v2.03l-.654 2.097-.824 1.886h1.864l3.783-.552 1.937.014 5.692-.86.61-.977.394-1.828 1.635-2.353-.213-2.642Z" fill="#406DC0"/></svg>