<svg width="39" height="47" fill="none" xmlns="http://www.w3.org/2000/svg"><path d="m32.718 16.256-.079-.003-.12.027-.041-.013-.075-.04-.061-.02h-.063l-.079.018-.35.147-.063-.008-.211-.119-.053-.045-.046-.058-.186-.323-.043-.054-.167-.074-.205-.006-1.032.14-.025-.009-.02-.016-.025-.009-.04.01-.105.052-.037.004-.07-.027-.042-.047-.045-.037-.086.007-.319.1-.173.003-.127-.087-.036-.087-.021-.158-.033-.073-.041-.04-.036-.017-.031-.028-.024-.066.003-.049.038-.062-.008-.05-.118-.075-.174.037-.3.173-.07.05-.151.074-.469.334-.12.131-.135.095-.314.036-.222.113-.065-.023-.065-.043-.08-.024-.308.028-.044-.023.007-.044.018-.053-.003-.052-.032-.04-.026-.01-.075.004-.26-.043-.086-.075.074-.135-.113-.162-.057-.06-.074-.04-.308-.045-.371-.171-.065-.044-.058-.06-.055-.077-.048-.132-.031-.136-.047-.113-.095-.065-.297-.018-.37.056-.078.042-.076.11.006.107.033.107.004.11-.044.054-.085.052-.093.035-.063.001-.046-.052-.118-.262-.117-.162-.04-.087-.016-.127-.002-.218-.025-.086-.056-.12-.128-.066-.155-.005-.305.044-.07-.018-.095-.019-.053-.077.03-.123.068-.037.157-.04.068-.029-.01-.088-.064-.09-.271-.065-.56-.167-.252-.172-.085-.029-.981-.067-.452.082-.111.057-.12.036-.009.056.005.075-.026.082-.113.08-.263.021-.119.064-.058-.025-.496.078-.076-.016-.11-.127-.092-.392-.139-.1-1.26-.085-.067-.028-.005-.028-.012-.112-.009-.04-.025-.036-.032-.034-.033-.026-.03-.015-.067-.01-.593.07-.14-.02-.26-.118-.339-.28-.045-.06-.033-.093-.008-.087.004-.1c.002-.128.004-.257.004-.385l-.286-1.137-.041-.107-.026-.108.018-.24-.015-.1-.034-.12-.026-.221-.042-.086-.06-.051-.246-.147-.2-.058-.424.012L13.297 9l.005 1.926-.01.057-.023.032-.03.013H6.012v.001L6 11.16l.028.088.037.084.027.178.021.049.024.045.019.048.026.186.104.287.026.207.03.089.081.182.03.256-.074.203-.093.193-.031.224.082.308.019.168.019.084-.002.059-.016.058-.044.095-.012.064.062.345.023.075.017.084-.052.366v.218l.028.2.055.19.154.387.04.196.057.178.123.147-.05.125.008.12.09.256.002.031-.02.039.007.023.012.01.012.005.01.006.004.013.013.021.083.106.028.066.043.184.047.106.048.081.037.09.021.186.042.144.057.047.015.027.001.033-.009.03-.012.025-.004.02.004.125-.006.103.003.091.034.09v.075l-.056.263-.002.108.018.026.033.036.03.045.014.051-.026.66.011.118.053.251.013.11-.006.04-.012.044-.01.052.002.06.047.212.004.103-.025.339.007.068.018.047.045.08.012.068.002.038h-.014l.018.013.042.012.036.027.041.012.023.022.013.032-.006.024-.014.022-.018.083-.05.07-.01.054.005.173-.005.057-.011.035-.032.085-.008.052.01.08.05.18.013.113-.013.115-.043.178.007.11.035.072.112.16.024.101.02.19.003.108-.023.104.02.036.058.067.02.04.006.037v.045l.005.052.023.056.206.332.12.14.053.087.022.108-.01.33.01.103.01.055.017.043.08.138.002.033-.008.038-.005.06.016.028.024.188v.064l-.025.142-.042.113-.001.12.07.378-.023.052-.011.02-.013.026-.01.027-.03.307-.024.088-.073.13-.105.248-.014.023-.027.04-.035.036-.094.077-.257.15-.036.033-.08.093-.134.098-.032.026-.027.031-.044.107-.015.106.094.126.174.204.072.116.128.305.078.149.071.063.28.03.15.047.103.077.038.044.084.072.034.037.097.189.024.051.018.015V39c6.12 0 12.24-.002 18.36-.004l.02-.114.007-.06-.005-.065-.02-.125-.003-.065.014-.153-.002-.05-.025-.13-.001-.045.043-.264-.001-.092-.01-.096-.013-.044-.021-.037-.049-.058-.019-.034-.013-.042-.008-.041-.002-.043.009-.143-.004-.113-.017-.118-.014-.054-.024-.048-.035-.04-.047-.03-.15-.057-.028-.064-.081-.105-.025-.069-.007-.037-.009-.032-.014-.028-.023-.023-.043-.02-.13-.011-.03-.01-.026-.015-.2-.167-.02-.009h-.341l-.044-.013-.044-.024-.409-.374-.136-.065-.07-.093-.266-.526-.132-.23-.54-.498-.188-.072-.411-.07-.047-.024-.038-.042-.03-.054-.091-.212-.102-.132-.12-.098-.124-.047-.55-.093-.152-.096-.016-.031-.017-.047-.022-.042-.062-.043-.248-.254-.217-.143-.095-.086.145-.308.023-.135-.002-.06-.022-.16.012-.053.05-.084.01-.031-.015-.214-.033-.211-.084-.223-.023-.11.048-.047.073-.026.045-.07.02-.097-.005-.112-.06-.168-.017-.026.006-.058.023-.105.004-.222.015-.093.03-.081.048-.062.056-.046.046-.058.042-.206.103-.171.015-.09-.017-.096-.05-.08-.064-.068-.06-.08-.028-.074-.05-.193-.041-.076-.137-.054-.176.005-.155-.037-.065-.176.024-.382.014-.084.032-.06.306-.3.097-.15-.015-.147.142-.273.097-.126.112-.052.063-.018.19-.12.092-.016.03-.016.016-.022.042-.07.004-.014.014-.012.02-.023.028-.024.033-.01h.146l.052-.03.08-.132.05-.046.064.005.088.019.08.004.034-.044.016-.069.04-.068.047-.056.044-.033.069-.014.003-2.938.008-.017.016.003.051.019.064.006.06-.005.052-.014.018-.012.014-.016.006-.014.01-.023.016-.13.006-.032.013-.026.015-.021.018-.017.02-.01.057-.015.02-.013.011-.02.03-.087.028-.046.057-.044.047-.023-.01-.022.067-.163.167-.154.322-.213.209-.185.132-.047.218-.151.185-.22.12-.054.2-.155.02-.031.037-.079.018-.028.036-.02.048-.017.043-.03.018-.061.04-.061.249-.132 1.76-1.924.222-.101.556-.54.913-.5.483-.158.176-.024.06-.019.145-.092.715-.229 1.206-.626.064-.056.113-.133.099-.048.059-.1.042-.021.105.038.058.005.031-.031-.043-.001-.225-.063Z" fill="#406DC0"/></svg>