<svg width="39" height="47" fill="none" xmlns="http://www.w3.org/2000/svg"><path d="M23.83 12.924c-.01-.01-.004-.028-.003-.04 0-.016-.004-.03-.005-.044-.001-.033.006-.07.009-.102l.01-.142c.002-.027 0-.057.008-.083.011-.04.011-.083.014-.124.002-.028.002-.058.007-.086.003-.014.008-.026.01-.04v-.02c.004-.013.01-.022.01-.036.002-.016.003-.03.007-.046.007-.025.01-.05.018-.075.007-.024.004-.05.01-.073.007-.025.016-.048.02-.074.008-.047.024-.09.037-.136.003-.014.004-.027.01-.04l.008-.025c.003-.01.003-.022.004-.033.001-.01.006-.02.008-.03.004-.014.001-.03.005-.044l.01-.035c.006-.019.012-.04.02-.059.009-.018.022-.033.03-.053.007-.02.018-.041.024-.063-.014-.031-.043-.057-.066-.083-.011-.013-.022-.027-.035-.039-.01-.01-.022-.024-.034-.032-.005-.004-.013-.005-.018-.01-.013-.008-.025-.025-.036-.036l-.042-.043c-.028-.028-.046-.058-.081-.082l-.007-.007c-.007-.012-.02-.02-.028-.032a.104.104 0 0 1-.013-.025c-.009-.025-.012-.05-.019-.076a.16.16 0 0 0-.094-.11l-.072-.03c-.023-.01-.041-.027-.064-.038-.046-.022-.064-.066-.093-.105-.018-.024-.039-.047-.052-.074-.008-.018-.013-.037-.022-.055-.013-.03-.022-.065-.04-.092a.728.728 0 0 0-.046-.06c-.02-.023-.033-.044-.057-.064a.255.255 0 0 0-.065-.041.127.127 0 0 1-.06-.049c-.006-.008-.008-.018-.013-.027-.006-.01-.015-.018-.02-.029-.01-.017-.022-.035-.03-.054-.007-.016-.01-.036-.019-.052a.151.151 0 0 0-.042-.054c-.012-.008-.035-.023-.05-.022-5.689.085-15.236.112-18.882.048-.004.033.006.056.012.086.007.036.014.073.029.107.011.027.022.052.032.08.014.04.017.07.05.1.025.022.057.053.09.06.04.01.082-.019.098-.057.015-.037-.013-.181.042-.189.03-.004.073.039.1.05a.177.177 0 0 1 .083.081c.025.046.05.146.007.188-.055.054-.14.057-.156.145a.426.426 0 0 0 .017.236c.02.047.042.099.068.143.015.024.035.047.046.073.012.026.016.038.034.06.026.03.048.067.068.1.01.017.018.042.027.061.008.018.008.03.007.049l-.001.01c-.005.063.003.145-.028.2a.162.162 0 0 0-.027.095c.005.043.057.058.093.06l.105.008c.054.004.06.033.079.077.01.022.026.04.04.06.01.016.014.036.026.052.026.036.073.07.108.096.073.057.173.066.238.135.028.03.076.055.078.1.002.03-.005.066-.008.097-.004.05.004.08.034.12.025.034.06.047.09.073.03.026.06.055.058.095-.002.037.005.072.002.11l.01.01c.017.083.105.085.15.14.02.024.042.057.01.08-.013.01-.025.01-.037.024a.09.09 0 0 0-.017.047c-.014.124-.03.286.085.369.023.016.065.011.092.013.037.002.068-.006.105-.004.037.004.06.018.081.049.01.014.014.03.023.044.012.021.031.04.044.06.017.027.03.059.053.081l.054.05c.022.019.03.038.048.06.027.032.068.055.095.087.011.013.017.027.03.04.016.014.035.023.05.04a.267.267 0 0 0 .102.065c.04.017.052.04.066.081.015.042.048.054.088.068.035.013.09.01.114.043.054-.005.084.055.1.097.008.022.016.033.028.051.015.023.02.052.053.058.02.003.038-.012.058-.015.024-.004.05-.002.075-.005a.219.219 0 0 1 .051 0c.028.004.049.025.074.039.028.016.078.027.108.006.04-.026.061-.1.114-.108.02-.002.044.007.064.006a.111.111 0 0 0 .052-.017c.025-.014.048-.042.073-.052a.138.138 0 0 1 .073-.002c.022.005.04.018.06.026.025.01.04.016.05.042.017.038.006.088.002.128-.004.05-.004.086.045.116.046.028.105.007.156.02.054.015.039.089.035.13-.002.038-.005.088-.029.117a.108.108 0 0 1-.068.039c-.017.002-.026-.004-.043.006-.021.013-.043.033-.048.058a.204.204 0 0 0-.005.056c.007.025.049.036.07.037.027.002.054-.012.08-.006.054.014.045.125.02.16-.041.056-.103.065-.166.054-.022-.003-.04-.013-.062-.015l-.074-.006-.034.019c-.037.028-.074.042-.095.087-.014.031-.012.068-.015.103l-.008.106c-.003.044.006.08-.049.076-.02-.002-.035-.005-.054.005-.016.01-.031.028-.045.04-.036.032-.074.06-.109.093-.034.033-.036.082-.047.125-.005.017-.012.03-.014.049-.003.027-.004.055-.006.083-.003.037-.003.066-.038.085-.04.021-.077.032-.112.064-.029.025-.065.04-.09.07a.263.263 0 0 0-.052.12c-.007.039-.015.099.012.131.027.034.077.044.11.071.036.03.074.059.104.095.04.047.064.117.08.175.009.03.015.06.026.088.01.024.012.055.026.076.03.05.088.041.135.055.046.013.1.045.11.093.012.051.003.106-.001.158.036.003.074-.005.094.03.025.044.023.066.08.068.04.002.049-.015.08-.037.037-.026.064-.029.107-.037.043-.009.07-.014.09.03a.142.142 0 0 1 .007.095c-.012.045-.066.058-.081.1a.212.212 0 0 0-.004.103c.017.067.056.129.092.186.02.032.048.065.082.081.037.017.07.036.106.056.158.093.117.283.106.437.011.006.028.018.04.022.015.005.03.002.044.008.02.008.037.037.049.055.014.023.02.048.028.075.008.025.022.028.049.035.02.005.041.007.062.007.02.001.047-.011.065-.005.03.012.025.053.048.07.019.015.051.01.074.013.054.005.104-.035.152-.053.028-.01.051-.027.076-.006.022.02.027.051.044.074.016.02.05.05.074.062.02.01.048.01.067.023.044.031.03.09.027.135l-.192 15.738c3.145.242 15.106.05 21.761-.115.031.036.047.065.098.064.035-.001.076-.029.107-.049.017-.01.04-.033.06-.04.016-.003.036.002.053.003.02.002.036-.002.048.014.012.017.004.044.003.063 0 .01-.005.028-.003.04.003.021.019.03.031.046.03.042.015.1.011.148-.003.04-.003.08-.014.117-.006.016-.014.034-.01.052.004.025.03.04.044.06.026.033.047.069.075.1.025.03.052.075.088.09.031.012.091-.008.1.038.002.018-.008.03-.015.045a.841.841 0 0 1-.054.1.232.232 0 0 0-.03.11c-.003.044.024.072.026.115a.46.46 0 0 1-.008.115c-.01.038-.054.077-.082.102-.016.015-.035.026-.046.046-.012.022-.017.054-.024.078-.007.029-.016.056-.02.086-.001.023 0 .048-.005.07-.003.01-.009.018-.012.028-.004.013 0 .026-.003.039-.005.02-.027.043-.04.06-.042.055-.11.086-.156.139-.015.029-.024.065-.05.087-.014.011-.033.01-.048.015a.294.294 0 0 0-.056.033c-.064.045-.124.077-.148.156-.01.033-.014.07-.02.103-.005.02-.01.026-.019.044-.007.014-.01.03-.017.044-.02.034-.068.042-.1.06-.04.02-.069.052-.1.083-.048.045-.059.124-.082.186-.01.03-.027.058-.04.087-.015.036-.038.07-.054.107-.015.035-.032.124-.012.16.011.02.054.047.08.04.019-.005.02-.022.036-.033a.105.105 0 0 1 .058-.017l2.904-.093v-.005.005c.022-.037.056-.06.08-.095.02-.03.043-.062.06-.095.019-.035.04-.068.055-.104.007-.016.017-.03.025-.045.008-.014.024-.035.022-.053v-.007c-.001-.01.008-.023.01-.035.003-.021.01-.04.012-.063.002-.04 0-.089.017-.127a.239.239 0 0 1 .073-.082c.036-.026.083-.037.118-.063.03-.023.06-.045.08-.078.008-.014.023-.029.028-.043.005-.014 0-.027-.004-.041a.308.308 0 0 0-.12-.168.475.475 0 0 1-.061-.05.218.218 0 0 0-.085-.052c-.023-.008-.044-.02-.066-.03l-.04-.016c-.025-.013-.045-.028-.068-.044a.398.398 0 0 1-.05-.044c-.017-.017-.027-.039-.044-.055-.018-.017-.045-.044-.035-.07a.339.339 0 0 1 .049-.075c.018-.022.054-.031.08-.037a.418.418 0 0 1 .11-.007c.018.002.035 0 .05.01.05.033.104.03.162.034h.007c.01-.009.029-.011.041-.016.017-.005.034-.012.05-.018.034-.014.066-.032.1-.04.03-.009.06-.022.09-.035l.069-.03c.018-.007.035-.011.054-.017.011-.004.033-.013.04-.023.01-.015.006-.054-.002-.067-.011-.017-.015-.036-.029-.052a.111.111 0 0 0-.046-.038c-.021-.009-.044-.015-.066-.023-.03-.012-.059-.02-.086-.036-.02-.012-.038-.029-.059-.041-.023-.015-.044-.042-.023-.069.018-.022.043-.03.066-.045.021-.012.045-.018.067-.03a.419.419 0 0 1 .089-.037c.027-.007.05-.021.077-.028.012-.003.037 0 .046-.011.007-.008.005-.022.005-.03a.22.22 0 0 0-.043-.152c-.035-.045-.085-.075-.122-.119l-.012-.014c-.01-.014-.02-.015-.032-.023a.094.094 0 0 1-.034-.032.098.098 0 0 1-.015-.06c.001-.025 0-.053.007-.077.008-.027.032-.044.052-.064.015-.015.034-.027.046-.045l.023-.039c.022-.036.016-.075.012-.116-.005-.05-.027-.089-.05-.133-.01-.02-.027-.038-.038-.059-.01-.017-.035-.04-.036-.06 0-.011.005-.015.008-.026l.006-.033a.18.18 0 0 1 .017-.045c.018-.03.06-.035.085-.057.026-.022.058-.017.09-.014.02.002.034.015.053.023.015.006.031.01.046.017.02.011.034.033.05.05.008.01.02.02.026.031.008.012.007.023.012.036l.017.043c.01.025.012.047.015.074.005.038.002.073-.001.112l-.004.049c0 .017-.008.043-.003.06a.095.095 0 0 0 .017.029c.011.01.017.01.033.01l.04.003c.025.002.033-.007.052-.024.012-.01.02-.02.03-.033l.038-.052c.011-.017.024-.03.037-.045.026-.027.042-.059.06-.09a.998.998 0 0 0 .06-.112c.015-.035.032-.061.034-.1-.014-.015-.004-.049-.002-.068.001-.02.004-.042.004-.063 0-.027-.01-.053-.008-.081l.004-.043c.002-.036-.001-.08.01-.114.011-.037.03-.071.045-.106.016-.038.04-.075.079-.09a.207.207 0 0 1 .095-.008c.015 0 .032 0 .047.003.015.002.029.01.043.015.016.007.035.015.05.026.015.012.021.029.032.044.045.063.05.15.12.197a.185.185 0 0 0 .085.023.19.19 0 0 0 .09-.013c.036-.016.076-.018.11-.04.028-.015.06-.03.068-.064.007-.03.004-.065.006-.095l.006-.082c.002-.029.002-.06.008-.089.007-.037.042-.046.06-.077.013-.02.037-.044.045-.067.005-.014.003-.031.005-.046a.14.14 0 0 0-.004-.049c-.003-.013-.012-.026-.01-.041l-.006-.008a.26.26 0 0 0-.033-.084c-.011-.021-.029-.04-.032-.065-.002-.011.002-.027.003-.039.001-.014 0-.03.005-.043.01-.03.032-.05.052-.073a.534.534 0 0 1 .074-.068.1.1 0 0 0 .04-.075c.002-.02.006-.04 0-.06a.233.233 0 0 0-.027-.057c-.01-.012-.02-.015-.031-.023-.01-.007-.016-.015-.026-.022-.025-.016-.054-.029-.072-.053-.016-.021-.03-.047-.042-.07-.015-.026-.03-.048-.03-.079a.26.26 0 0 1 .05-.133c.028-.042.067-.077.094-.12.01-.014.014-.033.022-.05.005-.009.01-.017.011-.026.004-.018.003-.038.004-.056a.211.211 0 0 0 0-.055c-.005-.02 0-.042.002-.062l.004-.041.002-.042c.002-.016.008-.029.011-.045.005-.025.003-.046.012-.07a.622.622 0 0 1 .035-.072.124.124 0 0 0 .016-.06c.005-.061-.006-.109-.056-.149-.049-.04-.103-.02-.16-.026-.05-.004-.1.007-.148-.005-.06-.016-.075-.08-.114-.119a.325.325 0 0 1-.052-.07c-.007-.013-.017-.025-.023-.038l-.008-.025c-.004-.006-.01-.01-.015-.016-.007-.013-.008-.024-.019-.036-.01-.013-.013-.02-.02-.035a.338.338 0 0 0-.048-.066v-.007c-.028-.035-.045-.086-.08-.115l-.052-.04c-.014-.01-.03-.008-.047-.01-.022-.002-.046-.007-.067-.004-.015.003-.031.003-.045.009-.039.015-.035.061-.023.095.006.014.01.033.018.045.01.016.024.026.034.043.019.03.045.056.072.079a.305.305 0 0 1 .107.172c.005.026.014.058-.01.078a.11.11 0 0 1-.072.026.486.486 0 0 1-.19-.035.441.441 0 0 1-.09-.055c-.03-.024-.066-.047-.093-.077a1.71 1.71 0 0 1-.094-.108.155.155 0 0 1-.035-.078.789.789 0 0 0-.013-.097c-.005-.027-.007-.054-.014-.08-.005-.017-.006-.032-.01-.048-.005-.017-.013-.035-.016-.052v-.022c-.003-.01-.009-.019-.01-.03-.003-.013.002-.032.003-.046l-.007-.007a.268.268 0 0 0-.07-.156.35.35 0 0 0-.123-.096c-.02-.01-.04-.027-.06-.04a.135.135 0 0 1-.045-.064c-.01-.024-.014-.057-.018-.082-.002-.017.005-.033.002-.05-.002-.01-.005-.017-.004-.029l.002-.03c.002-.026-.004-.05-.001-.075a.315.315 0 0 0-.023-.152c-.004-.007-.009-.023-.015-.028-.008-.006-.034-.003-.044-.004-.024-.002-.044.003-.068.002l-.062-.005a5.832 5.832 0 0 0-.076-.006c-.024-.001-.04 0-.052-.024-.018-.034-.01-.073-.007-.11h-.007c.002-.034.018-.056.04-.08.027-.028.04-.067.062-.098a.425.425 0 0 1 .09-.083.341.341 0 0 1 .059-.037c.014-.007.02-.006.032-.018.008-.008.013-.013.023-.019.02-.01.048-.02.064-.036.007-.007.017-.023.022-.032.017-.029.022-.062.034-.093.013-.03.013-.062.016-.096l.003-.037c0-.015-.007-.03-.011-.045-.008-.032-.025-.06-.034-.092-.005-.016-.014-.026-.02-.04-.007-.013-.01-.026-.017-.038-.03-.05-.058-.1-.09-.15-.01-.016-.023-.03-.032-.046-.009-.018-.014-.037-.022-.056-.017-.034-.043-.064-.06-.098-.013-.025-.03-.049-.043-.074-.016-.03-.028-.063-.046-.093-.016-.027-.032-.05-.044-.079-.01-.026-.026-.05-.033-.078-.005-.018-.016-.03-.024-.045-.006-.012-.01-.024-.018-.036-.017-.026-.03-.062-.052-.083l.002-.028c.002-.028-.001-.064.015-.088.008-.013.022-.026.032-.039.008-.01.03-.02.034-.03.009-.024 0-.059-.006-.082-.008-.033-.038-.062-.061-.085-.011-.011-.025-.016-.036-.027a.183.183 0 0 1-.025-.03c-.016-.025-.024-.05-.033-.079-.009-.026-.022-.054-.024-.082-.002-.025 0-.05 0-.076 0-.053-.03-.132-.077-.162a.214.214 0 0 0-.082-.028c-.015-.001-.026-.008-.04-.01-.015-.003-.03 0-.045-.004-.012-.004-.022-.012-.034-.015-.015-.004-.028-.006-.043-.012a.324.324 0 0 1-.07-.04c-.029-.021-.05-.053-.077-.077a.435.435 0 0 0-.066-.048.368.368 0 0 1-.126-.131c-.011-.018-.014-.039-.023-.057-.007-.013-.011-.021-.016-.036-.007-.02-.031-.04-.025-.065-.01-.026.002-.048-.001-.075a.125.125 0 0 0-.033-.069c-.024-.023-.082-.015-.115-.018-.02-.001-.041 0-.059-.01a.101.101 0 0 1-.03-.029c-.006-.01-.005-.02-.011-.03-.007-.01-.016-.018-.022-.029-.007-.012-.013-.022-.022-.033-.02-.024-.038-.05-.06-.073-.02-.018-.04-.029-.062-.044-.01-.006-.015-.015-.024-.021-.01-.008-.023-.011-.035-.016a.84.84 0 0 0-.122-.042c-.014-.004-.03-.003-.045-.008-.011-.004-.021-.01-.034-.013l-.058-.012c-.04-.01-.066-.05-.095-.076l-.092-.079c-.019-.017-.033-.04-.054-.055-.016-.012-.038-.033-.059-.032h-.007a.123.123 0 0 0-.12-.031c-.027.008-.053.01-.072.032-.024.027-.055.042-.081.068-.015.016-.027.033-.043.047l-.031.023c-.014.01-.028.022-.043.031-.022.014-.057.016-.083.021-.017.004-.034.01-.05.015-.022.007-.045.01-.064.02-.027.014-.049.03-.08.026-.027-.002-.037-.021-.053-.042-.019-.023-.042-.044-.063-.067a1.181 1.181 0 0 0-.073-.077c-.018-.018-.038-.03-.047-.055-.017-.043.002-.074.011-.116.003-.012.008-.024.01-.036.002-.01 0-.02.002-.03.003-.017.024-.035.038-.046l.05-.04c.016-.012.045-.04.065-.037l.021-.012c.014-.009.012-.041.012-.056 0-.024-.018-.045-.03-.064-.028-.047-.086-.078-.128-.111-.027-.021-.056-.043-.08-.068-.02-.023-.042-.04-.064-.061a.457.457 0 0 0-.076-.058c-.019-.011-.035-.026-.054-.04a.691.691 0 0 0-.147-.082c-.02-.009-.042-.02-.063-.028-.022-.008-.041-.013-.06-.026-.044-.03-.092-.05-.137-.077a.567.567 0 0 0-.069-.036l-.026-.012c-.009-.005-.022-.018-.031-.018-.018 0-.023-.013-.033-.023-.012-.013-.026-.022-.037-.036a.9.9 0 0 1-.056-.074c-.01-.016-.018-.032-.034-.043l-.03-.015c-.026-.017-.052-.035-.081-.044-.024-.008-.044-.024-.065-.037-.018-.012-.032-.027-.051-.037l-.028-.016-.067-.04c-.01-.006-.016-.014-.025-.018-.016-.008-.025-.01-.038-.022-.013-.011-.022-.023-.033-.035-.01-.01-.023-.016-.033-.027-.024-.024-.047-.047-.065-.077-.014-.023-.034-.043-.048-.065a.399.399 0 0 1-.033-.064c-.02-.05-.03-.105-.046-.156l-.021-.065c-.007-.018-.02-.055-.015-.075.002-.012-.005-.023-.005-.035l.003-.027.006-.08c.001-.024 0-.051.006-.074a.399.399 0 0 0 .011-.072l.004-.046c0-.01.005-.015.008-.025.005-.02.007-.041.011-.062.01-.037.026-.075.04-.11.016-.042.028-.084.053-.121.016-.024.028-.052.047-.072.017-.018.03-.036.046-.056.014-.018.032-.037.045-.057.019-.03.043-.055.061-.085.015-.025.04-.042.058-.065a1.45 1.45 0 0 0 .032-.041c.03-.04.051-.083.076-.123.015-.024.03-.045.042-.071.007-.018.022-.034.024-.053l.01-.033c-.002-.016.008-.026.01-.04l.002-.038c.002-.026 0-.054.007-.079.007-.03.017-.058.025-.087.006-.02.015-.029.026-.046.006-.01.01-.023.017-.033.015-.02.037-.033.05-.053.017-.022.02-.047.028-.072.015-.05.021-.105.04-.155.009-.02.026-.037.034-.058.006-.013.008-.026.016-.037l.017-.024a.513.513 0 0 0 .048-.081c.01-.02.01-.04.012-.06.001-.022.006-.045.005-.066-.001-.025-.013-.046-.022-.069a1.264 1.264 0 0 1-.04-.141c-.002-.01-.008-.017-.01-.028v-.015c-.003-.01-.01-.019-.013-.028-.008-.022-.011-.044-.016-.066-.006-.026-.013-.052-.018-.079-.003-.014-.01-.028-.01-.043-.002-.013 0-.027.002-.041v-.007c.002-.028.002-.063.02-.087.01-.012.024-.02.033-.032.011-.015.02-.032.033-.046.025-.027.044-.056.072-.08a.386.386 0 0 0 .061-.064c.027-.036.047-.077.07-.115.012-.022.017-.046.027-.068.009-.021.019-.042.021-.066l.005-.061c.002-.024-.005-.046-.01-.07a.39.39 0 0 0-.076-.188c-.014-.017-.023-.04-.041-.052-.037-.026-.078-.044-.119-.064-.047-.022-.094-.048-.14-.072a.33.33 0 0 1-.06-.037.134.134 0 0 0-.07-.036c-.013-.011-.02-.024-.031-.035-.012-.011-.024-.02-.033-.033-.013-.02-.027-.033-.044-.05l-.045-.044a.096.096 0 0 0-.049-.03.295.295 0 0 0-.108-.004c-.021.004-.042.004-.063.009a.154.154 0 0 1-.057.004c-.024-.002-.05 0-.073-.007-.022-.006-.044-.006-.066-.011-.043-.011-.087-.017-.127-.038-.018-.009-.037-.014-.055-.024-.02-.011-.037-.017-.057-.025-.039-.017-.081-.018-.123-.021h-.007l-.11-.009a.162.162 0 0 0-.103.034c-.03.02-.048.058-.07.086-.025.031-.038.07-.062.102-.017.022-.036.043-.053.067-.017.025-.04.046-.059.07-.008.01-.01.02-.02.029-.009.008-.019.014-.027.024a.42.42 0 0 1-.066.062c-.014.01-.03.013-.043.024a.147.147 0 0 1-.043.024.308.308 0 0 1-.084.021c-.024.002-.051-.003-.076-.005-.026-.002-.055 0-.079-.011a.194.194 0 0 1-.075-.066c-.013-.021-.02-.048-.03-.071-.012-.027-.02-.058-.038-.081-.017-.022-.032-.045-.05-.066-.009-.01-.018-.024-.029-.032-.013-.01-.026-.013-.04-.024-.01-.009-.024-.015-.035-.024a.138.138 0 0 1-.035-.047c-.012-.025-.025-.05-.03-.078a.263.263 0 0 1-.003-.062l-.005-.034c0-.011-.008-.02-.01-.03l-.007-.039c-.006-.022-.002-.043 0-.066a.2.2 0 0 1 .012-.05c.005-.015.014-.025.016-.04 0-.011 0-.022.002-.032 0-.019.002-.038.004-.057.002-.021-.004-.04-.008-.06-.008-.046-.022-.089-.033-.132-.007-.025-.015-.051-.015-.077 0-.016.003-.034.004-.05 0-.013.004-.026.003-.038-.002-.01-.005-.018-.005-.03 0-.019.004-.038.005-.058.001-.02-.004-.04-.002-.061 0-.022-.003-.043-.003-.064.003-.052-.02-.106-.031-.155-.006-.026-.006-.054-.015-.079-.008-.02-.012-.04-.018-.062-.005-.023-.006-.044-.012-.066-.005-.02-.004-.038-.002-.059.007-.098-.022-.194-.045-.29-.003-.012-.006-.024-.013-.036-.005-.01-.014-.02-.019-.03a.285.285 0 0 0-.186-.154.175.175 0 0 1-.062-.028c-.023-.016-.046-.033-.07-.048a1.218 1.218 0 0 1-.194-.15c-.011-.01-.024-.017-.033-.03-.007-.009-.012-.02-.019-.03-.012-.017-.031-.027-.044-.043-.01-.012-.018-.025-.03-.038l-.064-.072-.007-.007c-.01-.012-.015-.026-.026-.038l-.023-.022a.243.243 0 0 1-.014-.02.627.627 0 0 0-.063-.053.51.51 0 0 0-.134-.063.786.786 0 0 1-.174-.08.384.384 0 0 1-.074-.063c-.021-.022-.05-.034-.07-.058-.044-.052-.106-.08-.157-.125-.02-.018-.041-.03-.06-.052-.018-.022-.04-.044-.056-.068-.035-.05-.082-.092-.112-.146-.014-.024-.035-.041-.05-.064l-.032-.043c-.009-.011-.013-.026-.024-.036l-.012-.035c-.01-.012-.013-.02-.019-.034-.006-.015-.02-.027-.03-.039a.225.225 0 0 0-.065-.046c-.023-.012-.055-.018-.08-.027-.028-.01-.054-.02-.083-.026a.125.125 0 0 1-.1-.082.462.462 0 0 0-.013-.033c-.005-.013-.012-.02-.018-.032-.012-.018-.017-.039-.03-.057a1.297 1.297 0 0 1-.082-.135.272.272 0 0 0-.029-.044c-.006-.008-.015-.01-.024-.017-.019-.01-.035-.025-.054-.035-.02-.012-.036-.03-.054-.045-.02-.017-.043-.031-.058-.052-.009-.012-.013-.023-.024-.033-.01-.01-.02-.018-.03-.03-.017-.018-.039-.029-.055-.048-.021-.026-.049-.043-.07-.067-.017-.018-.031-.037-.047-.055-.01-.01-.02-.016-.03-.026-.007-.009-.013-.018-.021-.025-.014-.013-.033-.037-.053-.039l-.006-.007c-.045-.053-.107-.108-.131-.175-.004-.01-.006-.019-.011-.027a.063.063 0 0 1-.013-.016.08.08 0 0 1-.006-.027c-.006-.022-.023-.04-.022-.063 0-.02.004-.038.005-.057 0-.015-.004-.026-.005-.04 0-.012.004-.023.001-.034-.008-.043-.013-.087-.023-.128-.003-.012-.013-.017-.019-.027-.005-.01-.006-.02-.01-.029a.463.463 0 0 0-.044-.07c-.016-.021-.036-.034-.056-.052l-.053-.043c-.035-.03-.074-.051-.104-.085a.198.198 0 0 1-.037-.058c-.008-.019-.028-.048-.022-.07l.024-.318.006-.084c.001-.014.003-.028.002-.042 0-.014-.006-.027-.008-.04-.002-.022-.002-.035-.011-.055-.005-.011-.005-.025-.01-.036-.01-.018-.03-.036-.045-.052-.012-.013-.023-.018-.036-.028-.01-.007-.018-.017-.027-.025a.805.805 0 0 1-.184-.226c-.01-.023-.02-.045-.027-.07-.008-.025-.023-.046-.03-.072-.005-.022-.014-.041-.022-.063-.003-.01-.004-.02-.008-.029-.005-.01-.012-.019-.016-.03a.624.624 0 0 1-.048-.283v-.053Z" fill="#406DC0"/></svg>