<svg width="39" height="47" fill="none" xmlns="http://www.w3.org/2000/svg"><path d="m28.353 38.703-.432-10.998 1.352-19.093.04-.17a.306.306 0 0 1-.04.17c.165-.279.075-.534-.007-.785-.04-.126-.24-.494-.373-.599-.28-.22-.99-.162-1.357-.228l-10.52.432c.064-.103-.046.285-.212.483-.135.16-.285.218-.412.388-.184.248-.14.507-.47.668.085.355.04.696-.153 1.013-.124.2-.257.054-.341.335-.162.544.337.743-.045 1.342-.457-.16-.634-.02-1.096.054-.065.212-.26.33-.347.513-.09.192-.016.426-.099.637-.11.285-.345.262-.486.472-.149.222-.142.511-.19.767-.284.009-.415.227-.27.47.047-.008.08-.024.127-.026.023.408.054 1.432-.331 1.687-.266.176-.658-.106-.76.295-.018.07.096.511.101.617.008.17-.032.348-.011.519.027.228.02.743.089.914.122.3.32.275.392.614.128.604-.36.923.188 1.437-.122.03-.264.135-.38.143.513.234.366.34.14.743-.193.347-.186.515-.188.86-.003.628.239 1.171.38 1.685.08.288.386.79.152 1.08-.193.24-.649.113-.864.296-.408.348-.304.808.093.887.2.04.453-.188.72-.068a.979.979 0 0 1-.057.318c-.554-.152.019 1.272-.666 1.483-.473.145-.412-.216-.846.256-.124.135-.276.445-.441.45-.022.275-.092.578-.244.77-.162.205-.236-.155-.342.223-.08.283.41.71-.088.886-.063.233-.345.455-.347.716-.002.194.201.247.189.47-.043.006-.088-.002-.13.01-.012.183-.002.371-.014.555-.22.105-.667.252-.757.538.422.309-.02.725.102 1.017.127.306.693.268.758.48l10.423.095c.098.281-.1.61-.238.864-.196.36-.27.543-.336.964-.069.444.155 1.44.531 1.73.044.034.31.067.428.19.187.194.092.296.189.529.1.241.207.3.292.53.059.16-.05.319.059.465.217.288.767.237.997.057.28-.218.194-.514.426-.758-.339-.057-.438-.377-.136-.59.319-.226.503.089.72.2.141.07.042.173.236.193.145.016.29-.195.435-.232.186-.049.297.018.432.002.013-.001.22.03.26.027.09-.004.169-.165.267-.188.235-.053.57-.005.815-.005.289 0 .21-.112.473.067.174.12.142.289.395.375.395.134.598-.214.865-.2.397.02.419.468.905.19.016-.084.052-.148.055-.23Z" fill="#406DC0"/></svg>