<svg width="39" height="47" fill="none" xmlns="http://www.w3.org/2000/svg"><path d="M4.011 15H35v15.159H16.948v1.89s-.612-.391-.644-.692c-.03-.3-.335-.246-.46-.14-.125.105 0 .78-.39.644-.391-.137-.032.261-.707.062-.676-.199-.953-.335-1.171-.03a.586.586 0 0 1-.738.218c-.215-.09-.39-.176-.523.05-.133.227-.461.203-.477 0-.015-.203.032-1.046-.476-1.292-.507-.246-.675-.062-.632-.476a1.132 1.132 0 0 0-.184-.812c-.136-.215-.554-.46-.628-.921a1.987 1.987 0 0 0-.39-.86c-.11-.171-.555-.26-.633 0-.078.262-.305.493-.488.446-.184-.047-.39-.074-.434-.273-.042-.2-.152-.691-.042-.781.109-.09.304-.063.335-.309.032-.246-.277-.581-.183-.948.094-.367.136-1.277.183-1.398.047-.12.2-.414.078-.507-.12-.094-.706.148-1.073-.39A7.114 7.114 0 0 0 6.072 22.1c-.46-.37-1.073-.39-1.104-1.12-.032-.73 0-1.152-.309-1.398-.308-.246-.613-.183-.644-.644-.031-.46-.004-3.939-.004-3.939Z" fill="#406DC0"/></svg>