<svg width="39" height="47" fill="none" xmlns="http://www.w3.org/2000/svg"><path d="m21.293 25.47 4.711 4.518c.677.072 1.418-.206 2.054-.103.044-.4.474-.887.63-1.242.233-.528.443-.834.876-1.254.872-.845 2.018-1.654 3.234-1.462.127.02.316.02.432.082.218.116.113.313.4.306.568-.013.54-.872.761-1.185.184-.259.866-.677.049-.74-.315-.025-.757.224-1.142.177-.32-.829.76-.706.75-1.328-.145-.058-.493-.064-.568-.194-.22-.38.235-.563.528-.582.581-.039.952.483 1.351.004.249-.299.281-.628.579-.916.267-.26.368-.281.42-.707.024-.185.025-.467-.04-.634-.134-.352-.15-.228-.393-.287a2.997 2.997 0 0 0-1.294-.047c-.516.101-.928.217-1.439.103-.118-.026-.472.183-.28-.2.175-.346.737-.222 1.014-.286.555-.127.914-.511 1.384-.634.48-.126.6-.256.461-.814-.053-.215-.172-.758-.325-.901L13.83 17c.15.16-.075.044-.191.144-.14.12-.153.018-.274.24-.14.253-.013.521-.168.757.02-.03-.344.156-.337.152-.075.045-.138.184-.227.24-.15.096-.312-.009-.47.155-.067.07.017.25-.045.338-.422.597-.9-.337-1.507.151-.359.289-.24.612-.758.603-.328-.006-.391-.148-.623-.342-.17.184-.432.233-.574.383-.215.228-.228.608-.527.775-.249.138-.641.033-.923.177-.308.158-.294.492-.562.638-.161.089-.728.12-.914.143-.248.03-.438-.004-.707.076-.791.233-.72.44-.929 1.16-.148.029-.344.053-.47.14-.324.225-.081.168-.24.494-.088.179-.171.165-.277.335-.057.09-.092.475-.108.286l5.033.096c.19.08.74-.105.96-.177.139-.046.214-.167.381-.206.152-.035.33.039.48 0 .438-.108.562-.353 1.057-.336.528.02 1.055.057 1.58.107.61.057 1.245-.027 1.857.037.482.05 1.022.23 1.5.337.482.108.486.223.664.622.132.293.396.607.346.945h4.435Z" fill="#406DC0"/></svg>