<svg width="39" height="47" fill="none" xmlns="http://www.w3.org/2000/svg"><path d="M35.11 30.54c.21-.316-.14-.421-.21-.702-.035-.175-.49-.56-.666-.525.21-.175-.035-.526-.14-.736-.07-.175.14-.385-.035-.49 0 .07-.035.14-.035.175-.175 0-.245-.14-.245-.315 0-.42-.316-.35-.42-.666-.07-.175.105-.63.14-.806.035-.28-.07-.525-.176-.77-.035-.106.07-.176.035-.28-.035-.141-.105-.176 0-.281-.245-.07-.245-.175-.28-.385-.035-.14 0-.316.105-.106.035-.14-.07-.21-.175-.28-.07-.07 0-.315 0-.42.035-.28-.385-.07-.21-.456-.105.035-.245.035-.315-.035.07.07-.105-.35-.105-.315-.036-.175.035-.245-.036-.385-.07-.106.14-.07.105-.176-.07-.28.036-.385-.105-.63-.105-.21-.07-.56-.245-.63-.245-.141-.315-.316-.385-.561-.035-.176-.456-.386-.245-.56.245-.211-.21-.456-.246-.596-.07-.21.21-.561-.07-.666-.245.07-.28-.14-.49-.14-.175.07-.596-.456-.456-.666-.42-.07-.455-.315-.946-.28.07-.245-.21-.175-.385-.21a.899.899 0 0 1-.42-.176c-.175-.105-.14-.21-.35-.28-.14-.035-.316 0-.456.035s-.456.14-.596.035c-.14-.07-.14-.035-.245.035-.07.035-.07-.105-.14-.105-.105 0-.175.105-.245.07-.105-.035-.105-.07-.21-.07-.21 0-.14.245-.28.316-.281.105-.316.14-.561 0-.14-.07-.175-.176-.35-.246-.421-.175-.841-.245-1.087-.665-.105-.176-1.26-.035-1.436-.035-1.086 0-7.778-.035-10.02-.176A576.498 576.498 0 0 1 4.526 16L4 25.6l7.182.42-.175 4.764c4.624.105 9.249.245 13.908.21 3.539-.035 7.077-.07 10.65-.175-.14-.14-.28-.21-.455-.28Z" fill="#406DC0"/></svg>