<svg width="39" height="47" fill="none" xmlns="http://www.w3.org/2000/svg"><path d="m20.64 10.046.975-2.512-.414-.513.569.052.992-.97.504.716.828.16.49-.843.192-.136 1.038 24.135.231.456-.287 2.28 1.762 1.806-.269 1.425 1.15.694-.25.306-.144.743-.5.881-.118.8-.706-.019-1.331.194-.431.73-.7-.143-.468 1.044-.594.043-.55.625-11.469-.437-.225-.509-.308-.058L10 39.558l1.348-1.769-.266-.308.281-.66.081-2.487.348-.603-.223-1.54.98-3.366 1.299-1.811.09-1.063.72-.875c-.009-.337-.017-.675-.024-1.012l.72-.992-.284-2.55.474-.763 1.936-.394.202-.65.964-.202 1.176-1.251-.169-.786.541-.14-.132-.8-.724-1.722 1.312-2.098-.414-1.153.405-.517Z" fill="#406DC0"/></svg>