<svg width="39" height="47" fill="none" xmlns="http://www.w3.org/2000/svg"><path d="M14.727 10.323c-.462-.647 1.327-1.697 1.766-2.21.44-.513 1.387-1.697 1.85-2.362.462-.666.18-1.18.924-1.55.745-.37.925-.221 1.716.37.79.592 8.567 5.304 8.567 5.304s-.222 2.367-.888 2.959c-.666.591-.217 1.327-.735 1.849s-1.253 1.387-1.179.814c.074-.574.629-1.23.25-1.018a1.47 1.47 0 0 0-.685.56c-.18.282-.087.462-.342.564-.254.102-.3.874-.328 1.1-.028.227-.254.255-.347.463-.092.208-.115.578-.245.735a.758.758 0 0 0-.226.508c.027.144.892.884 1.29.657.397-.227.517-.282.97 0 .398.254.84.428 1.304.513.134-.037.282.028.171-.31-.11-.337-.337-.675-.263-.753.074-.079.356-.148.434.79.079.939.292.846.028 1.48-.263.633-.115 1.239-.397 2.275-.282 1.035-.084 1.387-.347 2.126-.264.74-.735 1.91-1.013 2.82-.277.912-1.021 2.063-.924 2.571.097.509.43.463.037.8-.282.269-.54.561-.772.874-.2.217-.375.462-.676.744-.3.282-.272.463-.208.63.065.166.273.462.176.535-.097.074-.393-.074-.504-.346-.11-.273-.388 0-.555-.088-.166-.088-.587.536-.397.735.19.199.083.462.397.36.315-.101.856.14.777.463a1.637 1.637 0 0 1-.638.925c-.254.101-.5.337-.49 0 .01-.338.088-.546-.037-.624-.125-.08-.227-.038-.273.18-.046.217-.11.328.097.5.208.17.204.535.074.6-.13.065-.3.144-.67.356-.37.213-.425.587-.56.425-.134-.161.176-.254.12-.716-.055-.462-.078-.462-.332-.139-.255.324-.185.43-.601.546-.416.115-.75.138-.79.402-.043.264.189.837.378.633.19-.203.5-.198.32.042a2.256 2.256 0 0 1-.63.777c-.462.346-.578 1.183-.772 1.618-.194.434-.18.864-.407 1.054-.226.19-.356.569-.883.999-.527.43-1.146 1.054-1.387 1.017-.24-.037-.517.065-.62-.107-.1-.17 0-.485.084-.767.15-.52.355-1.021.61-1.498.167-.284.275-.598.32-.925a.73.73 0 0 0-.528-.873c-.591-.227-1.193 0-1.202-.153-.01-.153.083-.412-.152-.435-.236-.023-.292.125-.601.153-.31.028-.537.055-.537.217s-.18.236-.3 0c-.12-.235-.227-.245-.2-.407a.638.638 0 0 0-.082-.462c-.093-.088-.208 0-.292-.134-.083-.134-.536-.227-.573-.374-.037-.148 0-.292-.171-.343-.171-.05-.176-.037-.356.033s-.319-.134-.365-.19c-.046-.055-.074-.5-.162-.564-.088-.065-.134-.19-.245-.143-.111.046-.402.162-.5-.074-.097-.236-.092-.5-.198-.564a2.029 2.029 0 0 1-.393-.245 9.472 9.472 0 0 0-.684-.772c-.246-.227-.463-.084-.57-.366-.105-.282-.193-.67-.138-.689.056-.018.199-.046.264-.356.064-.31.064-.397.166-.536.102-.139-.328-.781-.347-1.11-.018-.328.144-.379.574-.855.43-.476.49-1.433.837-1.678.442-.34.94-.603 1.47-.777.855-.314 1.965-.518 2.312-.925.346-.406-.236-.762.226-1.008.4-.223.755-.519 1.045-.873.31-.366 1.526-1.064 2.099-1.466.573-.402 1.983-.518 1.387-1.535a11.096 11.096 0 0 0-1.535-1.872c-.31-.421-.846-.847-.994-1.318-.148-.472-.999-.375-1.216-.874-.217-.5.328-2.02-.291-2.09-.62-.069-1.387 0-1.387-.462-.03-.5.013-1.002.13-1.489.115-.462-.167-.328-.056-.818.11-.49.924-1.091 1.09-1.175.167-.083.408-.725.537-1.054.13-.328-.226-.753-.319-.924a7.006 7.006 0 0 1-.282-.68Z" fill="#406DC0"/></svg>