<svg width="39" height="47" fill="none" xmlns="http://www.w3.org/2000/svg"><path d="M31.988 11.314c-.003-.772-.003-1.542-.003-2.314H7V37.223h3.437V35.05l.588.003c.714 0 1.427.006 2.14.006.713 0 1.426.006 2.139.006.716 0 1.435.005 2.15.005l.048.018.054.054-.247-.256-.053-.035-.057-.01-.048-.026-.038-.042-.03-.056.03-.036-.101-.148-.03-.083-.012-.113-.02-.104-.087-.176-.003-.083h10.277l2.293-.003h2.297l.009-1.646c.003-.793.008-1.583.008-2.376.003-.725.01-1.447.012-2.172l.01-2.368c.005-.778.005-1.556.011-2.335l.01-2.178c.002-.78.008-1.562.011-2.344.003-.79.006-1.583.012-2.373a16462.454 16462.454 0 0 1 .02-4.51l-.002-.092.172-.003-.012-.259Z" fill="#406DC0"/></svg>