<svg width="39" height="47" fill="none" xmlns="http://www.w3.org/2000/svg"><path d="M19.72 6.16c-2.04 0-9.48-.12-11.2-.16L8 21.36 29.6 42s-.04-.08.04-.16.12-.16.12-.28c0-.04-.16-.04-.16-.12 0 0 .28-.16.28-.24.08-.16 0-.4-.04-.56-.04-.16-.04-.4-.08-.56-.04-.24-.16-.36-.24-.52-.08-.32.08-.56-.04-.88-.08-.32-.16-.6-.16-.92l.08-.08v-.08c-.24-.32-.36-.4-.24-.76-.04 0-.04 0-.08-.04 0-.04-.08-.04-.08-.12 0-.28.36-.36.56-.4.16-.04.16-.04.36 0 .12.04.36.24.4 0 .28-.08.32.08.4.28.12.24.28.36.56.32.16-.16.16-.28.24-.48.04-.08.24-.4.32-.44l-.88-29.88c0-.04-7.48.08-11.24.08Z" fill="#406DC0"/></svg>