<svg width="39" height="47" fill="none" xmlns="http://www.w3.org/2000/svg"><path d="M30.345 23.672c.011.275-.099.55-.266.74.296.28-.105 1.053-.23 1.456-.227.728-.266 1.255-.192 1.995.06.618.085 1.215 0 1.843-.079.576-.334 1.204-.264 1.788.886.193-.875 1.226-.346 1.865-.436.56-1.037-.294-1.452-.534-.565-.327-1.165-.465-1.714-.838-.594-.404-3.477-1.744-2.671-2.54-.172-.338-.57-.815-.82-1.103-.254-.293-.91-.478-.977-.756L3 27.176c.114-.502-.114-.726.206-1.166.164-.227.582-.718.82-.899.66-.501 1.994-.553 2.147-1.635.372-.018.54-.302.734-.575-.15-.314-.379-.6-.484-.935-.495-.05-.54-1.527-.197-1.801.088-.071.723-.147.896-.222.315-.137.493-.284.824-.325.575-.071 1.296-.012 1.84.015.6.03 1.445.043 1.945.382.145.098.392.517.54.553.468.114.477-.331.829-.405.236-.05.742.05 1.036.018.336-.035.722.026 1.025-.01 1.006-.116.94-1.161 1.784-1.45.533-.184 1.274.455 1.086-.668-.038-.228-.124-.393-.316-.508-.014-.473.598-.467.694-.874.15-.642-.6-.389-.86-.832-.454-.77.321-.758.704-1.043.177-.132.279-.408.43-.52.195-.145.243-.114.463-.223.264-.131.356.025.62-.222.173-.161.136-.412.255-.602.272-.436.693-1.125 1.06-1.461.678-.62 1.586-1.086 2.344-1.552 1.884.504 4.228 0 6.144-.216-.953.051.653 1.805-.128 2.27 1.089.995.132 2.16.08 3.225-.033.663.087 1.353.05 1.922-.013.188-.264.677-.175.827.219.375.505.08.647-.193a.173.173 0 0 1-.087.057c.301.135.305.456.448.68l-.059 4.884Z" fill="#406DC0"/><path d="M26.704 36.108c.043.11.011-.194.01-.264.105-.005.217-.016.323-.02.011.014.013-.2 0-.185-.18-.04-.216-.149-.34-.218.265-.42.81-.415 1.092-.755.256-.31.047-.809.563-.955.195.655.508.402.838.203.487-.294.358-.507 1.017-.418.698.094.634.257 1.313-.136.498-.288.21-.241.885-.155.394.051.804.072 1.172-.116.388-.199.535-.549.884-.758.562-.336.56.005 1.084.14.47.12.973-.13 1.454-.063-.003.536-1.846.933-2.344 1.208-.857.474-1.73.72-2.665 1.051a23.25 23.25 0 0 1-2.868.841c-.453.1-2.169.719-2.418.463" fill="#406DC0"/></svg>