<svg width="39" height="47" fill="none" xmlns="http://www.w3.org/2000/svg"><path d="M33.43 9.04 33.39 9l-1.604.32-5.976 3.57-1.805.04-2.085.722-2.086-.32-.28-.361h-.04l-.843.04-.521-.16-.802-.683-1.645-.601H7.201c-.04 0-.04.04-.04.04L7 33.305s0 .04.04.04h.04l.481-.32.722.56h.04l1.043-.32.883.802.561 1.604s0 .04.04.04l2.166.441.842.963h.04l.442.16c.04 0 .04 0 .04-.04l.2-.4.642-.201 1.364.922h.04l.962-.2h.04l.762-.843.762-.24.442 1.323s0 .04.04.04l.842.321.762 1.043h.04l1.685-.28s.04 0 .04-.04l.28-1.124.602-.24c.04 0 .04-.04.04-.04l-.36-1.364 1.042-1.885.642.12.08.842s0 .04.04.04h.04l.562-.561.36.12h.04v-.04l-.36-1.203.4-.16.04-.04-.04-.602.402-.722.682-.16s.04 0 .04-.04l.682-1.084.561.482h.04l.883-.441 2.125-1.926v-.04l.24-.842v-.04l-.24-.361.441-.762v-.04l-.04-.401.24-.04c.041 0 .041-.04.041-.04l.08-1.404.762-1.885v-.04l-.16-.682.16-.562v-.04l-.481-.962.2-.281.682-.24c.04 0 .04-.04.04-.04l-.36-10.91Z" fill="#406DC0"/></svg>