<svg width="39" height="47" fill="none" xmlns="http://www.w3.org/2000/svg"><path d="M28.177 31.54c-.008-.008-.013-.02-.022-.028-.01-.01-.012-.02-.019-.031-.007-.01-.018-.018-.026-.027l-.024-.03c-.013-.013-.025-.03-.04-.04-.018-.014-.038-.012-.06-.012-.012 0-.025-.002-.038-.001-.01 0-.02.004-.03.005-.019 0-.045.003-.063-.001a.091.091 0 0 1-.055-.033.377.377 0 0 1-.034-.06.104.104 0 0 1-.001-.05.233.233 0 0 0 .005-.045c0-.03.007-.067 0-.096-.007-.033-.026-.069-.058-.084-.014-.006-.032-.003-.046-.004-.018 0-.036-.001-.054.002-.025.006-.052.01-.075.021-.008.004-.017.005-.025.008-.007.004-.011.01-.018.015-.01.01-.021.015-.03.026a.154.154 0 0 1-.017.02c-.01.01-.04.028-.04.044v.005c-.002.012-.013.023-.017.035-.005.012-.012.024-.018.035-.011.021-.028.042-.042.061-.007.01-.018.026-.028.034-.006.005-.014.005-.02.008-.02.008-.033.017-.055.017l-.055-.001a.087.087 0 0 1-.04-.015.369.369 0 0 1-.122-.118c-.015-.023-.028-.032-.056-.031a.109.109 0 0 0-.048.015c-.01.005-.016.013-.025.019a.286.286 0 0 1-.038.018.104.104 0 0 1-.048.005c-.04-.003-.065-.034-.079-.067a.417.417 0 0 1-.018-.052c-.005-.021-.013-.043-.017-.065-.002-.01-.008-.016-.01-.027-.003-.008-.003-.014-.007-.02a.521.521 0 0 1-.025-.051c-.008-.018-.018-.034-.027-.051-.008-.017-.022-.03-.02-.05h-.004c-.063-.056-.147-.044-.219-.012-.087.038-.077.142-.113.215-.009.018-.019.033-.024.052-.008.025-.01.05-.019.075-.004.014-.007.029-.012.043-.007.022-.026.045-.037.065a.1.1 0 0 1-.087.047c-.035-.001-.066-.014-.1-.02-.03-.004-.1-.004-.066.043.017.024.051.026.07.05.012.018.017.03.002.048-.01.014-.02.029-.037.036-.021.01-.047.014-.06.037a.183.183 0 0 0-.022.087c0 .03.006.058.015.086.01.028.016.057.025.085.006.02.01.047.002.066-.02.058-.095.075-.149.064a.253.253 0 0 1-.08-.032c-.015-.01-.03-.01-.042-.021a.215.215 0 0 1-.036-.044c-.007-.013-.016-.024-.02-.038-.004-.014-.006-.023-.018-.032-.022-.018-.046-.016-.072-.017-.032-.002-.015-.04-.008-.06a.24.24 0 0 1 .022-.039c.01-.014.023-.024.03-.039.016-.032.006-.069-.025-.084-.021-.01-.043-.024-.037-.05.001-.01.008-.02.011-.03.005-.01.01-.02.016-.028.018-.024.038-.045.05-.073a.214.214 0 0 0 .017-.077c0-.01 0-.018-.003-.027-.002-.013 0-.026-.003-.038-.005-.027-.026-.056-.038-.08-.01-.021-.019-.043-.032-.065-.013-.021-.025-.048-.044-.064-.012-.01-.021-.027-.036-.033-.01-.005-.021-.007-.032-.012a.066.066 0 0 0-.06.005c-.012.009-.024.023-.027.037v.028c0 .012.002.026 0 .038-.002.008-.007.017-.009.027-.002.01.002.03-.004.037-.006.01-.027.014-.037.017a.24.24 0 0 1-.076.003c-.015-.002-.02-.009-.03-.017-.008-.006-.028-.017-.038-.016l-.021-.011c-.028-.005-.074-.02-.085.02-.008.027.007.046.013.07a.093.093 0 0 1-.004.052c-.005.013-.016.014-.03.01a.096.096 0 0 1-.038-.03c-.012-.014-.017-.036-.029-.05-.008-.01-.027-.008-.037-.001-.011.008-.015.021-.02.032-.013.025-.003.047-.002.073 0 .02.003.049-.008.067-.008.013-.02.017-.031.025-.015.01-.026.018-.044.022-.016.004-.028.01-.044.009-.014-.001-.026.004-.04.004a.327.327 0 0 1-.076-.002c-.063-.011-.137-.04-.16-.104a.139.139 0 0 1 .004-.09c.008-.022.018-.043.025-.064.004-.012.01-.025.013-.037.002-.009 0-.02 0-.028 0-.013.002-.02-.005-.032-.007-.014-.012-.027-.02-.04-.009-.014-.014-.03-.024-.043a.512.512 0 0 0-.032-.032c-.013-.014-.021-.02-.04-.02h-.038l-.074-.002c-.03 0-.06.017-.091.015-.007.007-.019.005-.027.009a.21.21 0 0 0-.022.011.247.247 0 0 0-.037.023c-.013.01-.024.012-.038.018-.016.006-.029.015-.047.012l-.06-.013c-.023-.006-.04-.031-.042-.055-.002-.017.004-.035 0-.052-.004-.015-.004-.032-.01-.048-.007-.026-.017-.051-.027-.077-.01-.024-.017-.055-.035-.075-.014-.016-.037-.018-.057-.015-.017.001-.032.005-.05.005a.198.198 0 0 0-.073.01.374.374 0 0 0-.076.04c-.01.007-.016.016-.027.02-.014.006-.018.008-.028.018-.04.04-.088.071-.119.12h-.005l-.074.014-.039.008c-.015.003-.027.008-.042.012-.047.014-.065.051-.083.094-.007.016-.013.027-.017.044-.001.008-.005.014-.009.021-.01.018-.012.038-.021.056l-.019.03c-.005.01-.008.02-.014.029-.006.008-.015.014-.021.023-.006.008-.009.017-.014.025a.194.194 0 0 1-.049.048c-.02.011-.04.027-.065.027a.57.57 0 0 1-.137-.012c-.02-.005-.044-.007-.06-.018-.011-.007-.018-.015-.03-.02a.055.055 0 0 1-.02-.016.184.184 0 0 0-.052-.035c-.018-.008-.037-.006-.057-.006-.02 0-.044.002-.063-.005-.02-.008-.036-.02-.054-.027a.09.09 0 0 1-.045-.039c-.012-.018-.013-.034-.013-.056 0-.02.001-.038.008-.058.008-.026.026-.045.037-.07a.078.078 0 0 0 .005-.047c-.005-.02-.025-.028-.03-.05a.161.161 0 0 1 .007-.068c.006-.02.024-.034.027-.055.004-.029-.015-.037-.039-.037-.021 0-.035-.005-.043-.027-.007-.023 0-.047-.007-.07-.006-.017-.01-.034-.026-.045-.013-.009-.026-.018-.041-.02-.013-.003-.026 0-.04-.001a.207.207 0 0 0-.085.019.271.271 0 0 1-.113.02c-.017 0-.038.004-.052-.006-.007-.005-.015-.019-.021-.025-.009-.01-.009-.016-.013-.027-.006-.017-.014-.032-.014-.05v-.041c0-.02.003-.042 0-.062-.002-.02-.01-.037-.018-.057a.083.083 0 0 0-.032-.039.252.252 0 0 1-.032-.028c-.02-.023-.037-.06-.03-.09.007-.038.042-.066.066-.094.021-.025.02-.064.017-.095-.001-.017-.008-.027-.02-.039a.298.298 0 0 0-.047-.033c-.014-.008-.033-.021-.048-.023-.012-.002-.026 0-.037 0a.105.105 0 0 0-.039.005c-.017.006-.02.021-.028.035a.245.245 0 0 1-.032.042c-.012.014-.025.025-.038.038a.17.17 0 0 1-.043.031c-.013.007-.023.02-.038.021l-.017.005h-.054c-.024-.002-.04-.013-.063-.02-.044-.015-.087-.03-.131-.04-.085-.019-.157-.067-.243-.084-.063-.012-.138-.007-.203-.005-.097.001-.111.15-.153.212-.044.066-.102.168-.193.169-.029 0-.062.003-.09-.001-.021-.003-.044-.015-.063-.023a.231.231 0 0 1-.05-.033c-.03-.026-.06-.048-.087-.077-.03-.031-.056-.065-.084-.098-.014-.016-.02-.035-.033-.051-.015-.017-.036-.03-.051-.046-.024-.025-.059-.061-.096-.066h-.01c-.022 0-.037-.018-.056-.025-.024-.01-.048-.01-.073-.009a.191.191 0 0 0-.062.01c-.019.006-.018.01-.037.02-.036.024-.077.042-.114.063-.03.017-.064.042-.098.05a.454.454 0 0 1-.132 0c-.045-.004-.094-.034-.134-.053-.017-.008-.037-.021-.055-.026-.02-.004-.046 0-.066 0-.036 0-.068.01-.104.01-.032 0-.072.004-.103-.003a.304.304 0 0 1-.105-.054c-.068-.05-.123-.114-.187-.169-.033-.028-.05-.066-.085-.093a.325.325 0 0 0-.106-.055c-.028-.006-.069-.003-.097-.002-.034.002-.074.027-.107.02-.042.005-.082.039-.119.057a.15.15 0 0 1-.097.016c-.017-.004-.027-.01-.044-.012-.02-.002-.044.005-.063-.003-.021-.009-.027-.019-.053-.02-.02-.002-.043.002-.064 0a.44.44 0 0 1-.109-.027c-.021-.009-.043-.01-.062-.025-.018-.013-.029-.031-.042-.05-.047-.066-.051-.125-.05-.204 0-.071.001-.143.003-.214 0-.035-.004-.051-.03-.075-.02-.018-.031-.017-.055-.023-.016-.005-.026-.016-.042-.022-.006-.002-.014.001-.02-.001-.01-.003-.028-.02-.033-.023l-.053-.039a.236.236 0 0 1-.076-.089c-.034-.062-.024-.13-.091-.173-.055-.035-.118-.076-.18-.097a.21.21 0 0 0-.09-.001c-.021.004-.085.036-.084.061l-.01.01c-.027.022-.043.06-.066.085-.016.019-.029.058-.054.065-.02.006-.05-.004-.07-.001-.034.004-.056.016-.092.001-.055-.023-.068-.095-.12-.124-.022-.012-.047-.014-.069-.024a.222.222 0 0 0-.084-.02c-.03-.002-.06 0-.089-.002-.025 0-.06-.008-.083.009-.037.028-.027.103-.046.14-.029.06-.082.062-.141.062a.444.444 0 0 1-.086-.01c-.021-.004-.043 0-.064-.006-.018-.004-.031-.015-.048-.019-.011-.002-.023 0-.034 0l-.06-.012c-.051-.01-.067-.076-.097-.114-.02-.027-.032-.047-.06-.063a.314.314 0 0 0-.05-.022c-.024-.008-.052-.002-.074-.01-.02-.009-.035-.033-.05-.048-.033-.034-.088-.08-.1-.125-.01-.045-.03-.09-.046-.135-.009-.024-.026-.047-.036-.072-.013-.03-.017-.054-.037-.08-.031-.042-.051-.094-.084-.134-.061-.076-.148-.153-.251-.154-.09 0-.176.008-.266.007l.139-9.181L3 18.283l.09-2.238c5.448.354 25.363.418 31.724-.045l.184 2.822.88 4.862.228 8.297c-.017 0-.032.005-.05.004a.179.179 0 0 0-.053.009c-.022.008-.044.006-.068.005-.012 0-.048.005-.054-.008-.002-.006.006-.025.006-.033v-.024c0-.021-.015-.022-.033-.021-.018 0-.033 0-.049.007-.013.005-.023.016-.035.022a.065.065 0 0 1-.043.006c-.021-.006-.005-.026.001-.038.005-.009.007-.016.014-.023.006-.006.011-.01.014-.018.004-.017-.002-.034-.016-.044-.02-.011-.028 0-.045.005-.02.005-.036.018-.057.023l-.05.01c-.015.004-.03.003-.046.003a.112.112 0 0 1-.051-.01c-.019-.01-.021-.032-.029-.05-.006-.014-.008-.028-.017-.042-.008-.01-.025-.033-.04-.035-.025 0-.05.001-.075.005-.024.005-.045.02-.07.024a.166.166 0 0 1-.06 0c-.008-.004-.013-.016-.02-.022-.01-.009-.021-.012-.033-.017-.042-.02-.054-.085-.104-.086-.03-.002-.054.02-.084.02-.014 0-.052.004-.055-.015-.002-.008.01-.021.016-.027l.02-.024c.016-.024.067-.05.048-.085-.005-.01-.018-.028-.029-.031-.007-.002-.017 0-.024 0a.086.086 0 0 0-.048.013c-.02.012-.035.028-.052.042-.016.013-.023.018-.043.018h-.057c-.023 0-.043-.008-.066-.011-.032-.006-.064-.013-.097-.014l-.005.006c-.022 0-.042-.001-.064-.006-.026-.005-.052-.001-.053-.034 0-.01 0-.017.005-.027.006-.007.01-.009.012-.02.004-.023 0-.046-.02-.06-.017-.01-.037-.012-.054-.021-.021-.01-.028-.033-.036-.055-.007-.022-.013-.05-.032-.066-.014-.013-.036-.012-.05-.024-.031-.025-.04-.06-.05-.096a.547.547 0 0 0-.019-.056c-.008-.022-.026-.04-.037-.06-.009-.016-.024-.04-.043-.045-.012-.003-.03 0-.043 0-.017 0-.037.002-.053 0-.022-.005-.042-.02-.065-.018-.021-.013-.033-.018-.058-.017-.02 0-.03.01-.048-.003-.017-.013-.021-.02-.02-.04 0-.017.005-.041-.005-.054-.028-.04-.062.006-.087.023-.015.01-.03.007-.048.006-.005 0-.017.003-.021 0-.005-.004-.008-.016-.01-.021a.066.066 0 0 1-.005-.04c0-.008.004-.015.005-.024.001-.009 0-.018.002-.027.008-.03.025-.075-.023-.076-.01 0-.02-.002-.03 0-.009.004-.016.012-.026.015-.013.003-.03 0-.043 0-.009 0-.017 0-.025-.003-.006-.003-.01-.009-.017-.012-.01-.004-.024-.003-.037-.003-.027 0-.058.003-.085 0-.015-.003-.03-.01-.045-.012a.296.296 0 0 0-.049-.006l-.01-.005c-.023-.028-.048-.084-.09-.076-.033.006-.052.054-.055.082-.003.033-.017.057-.051.06-.02.003-.027.003-.036.021-.007.013-.006.025-.006.039 0 .017.002.038-.007.054-.008.015-.016.009-.03.004-.02-.009-.038-.02-.06-.018-.032.003-.022.048-.018.07.004.022.006.056-.005.076a.088.088 0 0 1-.031.036c-.011.006-.021.005-.034.005-.02 0-.048-.006-.066.001-.017.007-.028.022-.04.034-.004.006-.004.007-.01.01l-.029.01a.165.165 0 0 1-.058 0c-.026-.007-.042-.035-.069-.038a.185.185 0 0 0-.075.01c-.014.004-.023.01-.038.01a.21.21 0 0 1-.043-.005c-.022-.005-.049-.01-.066-.027-.018-.017-.013-.051-.04-.057-.027-.006-.04.02-.054.037-.004.006-.011.01-.016.015-.006.007-.01.015-.014.021-.006.01-.014.013-.024.018-.02.008-.044.003-.065.003l-.02-.017c-.025.006-.022-.042-.027-.055-.002-.008-.004-.024-.011-.029-.006-.004-.02-.003-.027 0-.012.003-.021.014-.033.02-.01.006-.024.007-.036.011-.02.006-.046.009-.06-.007l-.047-.05c-.015-.016-.027-.033-.04-.048-.026-.027-.052-.058-.08-.081a.073.073 0 0 0-.058-.017c-.028.003-.034.011-.044.034-.008.02-.008.038-.025.052-.013.012-.032.009-.048.008-.032 0-.068-.006-.099.003a.085.085 0 0 0-.046.027c-.013.017-.023.037-.035.055a.18.18 0 0 1-.04.043c-.007.004-.015.006-.021.01a.142.142 0 0 1-.03.018l-.055.023c-.014.006-.028.004-.042.004-.015 0-.033.002-.046-.004-.018-.008-.03-.017-.05-.014-.04.007-.054.056-.06.09-.005.022-.016.069-.045.07-.014 0-.033.002-.047-.003-.013-.004-.025-.012-.039-.017a.092.092 0 0 0-.096.027c-.013.013-.023.027-.04.037-.01.006-.02.005-.032.005-.013 0-.028.002-.04 0-.017-.003-.03-.018-.043-.028l-.042-.042c-.007-.006-.01-.011-.019-.013h-.021c-.032 0-.075.006-.102-.015-.015-.012-.03-.033-.049-.04-.011-.004-.02-.006-.031-.012-.008-.005-.013-.007-.023-.006v.006a.17.17 0 0 0-.054.05c-.015.022-.024.05-.045.066-.019.014-.041.01-.063.009a.11.11 0 0 0-.062.017c-.016.01-.027.024-.047.02-.011-.003-.017-.014-.026-.02a.184.184 0 0 0-.026-.016.081.081 0 0 0-.057-.009c-.03.008-.036.046-.062.056-.02.008-.039-.001-.056-.01-.018-.009-.042-.017-.058-.03-.018-.015-.03-.026-.056-.025a.066.066 0 0 0-.043.02c-.016.018-.023.047-.044.058-.007.004-.016.005-.023.006a.163.163 0 0 0-.028.01.056.056 0 0 0-.04.045c-.003.014.004.032-.003.043-.012.019-.038.02-.056.027-.02.01-.028.022-.029.043 0 .018.008.032.014.049.004.01.01.016.014.025.005.008.007.018.014.025l-.005.005-.045.045c-.014.014-.029.033-.05.035-.011 0-.026 0-.037-.002-.014-.001-.026-.01-.04-.011-.02-.003-.035-.002-.05.01-.016.011-.019.03-.033.043-.016.017-.027.024-.052.02a.108.108 0 0 1-.042-.017c-.01-.006-.015-.016-.023-.022-.008-.006-.017-.01-.024-.017-.013-.013-.022-.027-.04-.034a.103.103 0 0 0-.069.002c-.011.005-.02.005-.03.012l-.018.01c-.021.01-.028.026-.038.045a.278.278 0 0 0-.028.086c-.001.017-.002.03-.005.046s0 .032-.005.049c-.01.026-.039.064-.067.07-.027.005-.053-.005-.075-.018-.018-.01-.019-.019-.029-.034-.009-.015-.009-.031-.016-.046-.03-.053-.11.002-.146-.046-.016-.021-.02-.045-.027-.07-.003-.015-.008-.033-.016-.046-.013-.018-.026-.01-.045-.015a.136.136 0 0 0-.032-.005c-.011 0-.022.001-.033-.001-.014-.004-.028-.01-.043-.01-.012-.002-.025 0-.038-.001-.015 0-.028-.008-.043-.011a.519.519 0 0 1-.046-.013c-.013-.005-.027-.013-.04-.015-.014-.003-.028 0-.04-.001l-.018-.04Z" fill="#406DC0"/></svg>