<svg width="39" height="47" fill="none" xmlns="http://www.w3.org/2000/svg"><path d="m5.389 36 28.965-.002-.002-10.054.128-.203.145-.711-.072-.472.149-.165.14-.425a446.44 446.44 0 0 1-.327-.131l-.017-.264-.293.064-.149-.128-.06-.123-.105.115-.412-.102.165-.37-.212-.148.09-.667.318-.255.034-.331.284-.735.527-.344.131-.399.15-.123.152-.603-.098-.242.502-.671.25-1.172.803-1.576-.285-.365-.012-.306-.12-.187-.116-.073-.236.039-.191-.289h-.331l-.518-1.006H26.48l-.73.403-.71-.047-.646.191-.327-.14-.412.404-1.168.191-.802.314-.332.234-.96.157-.31-.238-.318.013-.786.416-.259.183-.246-.098-.497.072-.255.242-.255-.063-.034-.327-.31-.196-.441.043-.467-.204-.688.212-.502-.093-.488.37-1.066.492-.595.03-.654-.123-1.074-.412-.013-1.232-.527-1.308-1.015-.595-.51.276-.352-.021-.225-.187.03-.331L8.323 12l-.836.127-.242-.102-.54.175-.336-.16v.291l-.105-.102.055.395.136.344.072.603-.28.387.144.425-.038.429.042.327.077.212-.072.713.22.081.073.374-.298-.03.094.442-.153.42.042.497-.242 1.852-.204.947c-.005.511-.01 1.022-.017 1.533l-.131 1.04-.128 2.022-.263 1.7-.429 1.579-.331.272.064.2-.102.615c-.02.118-.045.176-.081.327a9.126 9.126 0 0 0-.11.535l-.23.629-.127.136-.047.157.157.578.102-.039.289.45.085.536-.11.488-.039.837.09.382.131.127.093.667.59.582Z" fill="#406DC0"/></svg>