<svg width="39" height="47" fill="none" xmlns="http://www.w3.org/2000/svg"><path d="m31.507 16.675-.062-.062-23.024.062v-.062l-.246-1.596c.082-.03-.3-.037-.599.138-.211.123-.614.688-.7.116-.526.009-.71.64-1.092.915-.322.232-.97.123-1.231.489L4 32.454v-.062.062l25.296.245c.089-.175.422-.491.786-.313.155-.471.74-.694 1.182-.738.162-.016.382.106.614.069.237-.038.387-.157.61-.25.657-.273.624-.628 1.105-1.116.406-.411 1.046-.493 1.407-.857-.324-.558-.574-.871-1.05-1.274-.094-.079-.692-.462-.712-.507-.16-.357.228-.646.038-1.021-.892-.15-.884-.6-.839-1.472.61-.098.986-.318.806-.993-.084-.313-.379-.436-.267-.737.088-.237.571-.456.755-.627.499-.466.388-.962.661-1.447.334-.591.55-.503-.12-.94-.056-.038-.206.03-.325-.052-.11-.075-.114-.29-.214-.389-.2-.201-.392-.145-.553-.416-.258-.436.06-.854-.184-1.35a2.746 2.746 0 0 0-.338-.474c-.222-.223-.258-.166-.476-.308-.19-.125-.254-.095-.479-.334-.161-.172-.093-.443-.258-.355" fill="#406DC0"/></svg>