<svg width="39" height="47" fill="none" xmlns="http://www.w3.org/2000/svg"><path d="M9.521 6.319A504.047 504.047 0 0 1 22.385 6l.377 5.056h.927l.03 4.36c.1.16.202.32.303.479l2.145 1.144.97 1.651-.55.595.318.767-.71 1.26-1.39-1.071.449-1.58-1.536-.492-.941-2.608-.377-.159-.16 2.52.884.508-.782 2.042-.319-.594-1.637-.159.058 1.232.898.159.276 2.665-1.203.305.16.695.68 1.304c.04.478.078.956.116 1.434l-.144 1.058-.812 1.666-1.202 2.955-1.087-.608-2.361.376-1.029.319-2.13.753-.26-.405-.985.898-1.072.014L8 35.25l.608-1.144-.159-.913-.246-1.637 1.318-1.81V6.318ZM28.108 20.24l1.955.638-.217 2.13.58 4.592-.595.348-.043.463-1.507.768-.347-1.507-.13-.941-.218-1.652.225-4.128.297-.71ZM27.412 21.429l-.71 1.42-.029 1.26.261.434.174 1.652L26.6 27.7l.043.768-.666-.55-.84.116-.522 1.434-1.448-.03-.13-.39.68-.609.739-.246-.391-1.231.58-.609.23-1.362a18.088 18.088 0 0 0 1.182-2.73l1.354-.833Z" fill="#406DC0"/><path d="m22.27 25.239-.276 2.238-.152 2.035 1.13-1.21.08-3.063h-.783ZM24.045 22.276l.13 1.84.319-.45.268-.47-.116-.862-.601-.058ZM16.36 38.798l.651.406-.405 1.304-.247-1.71ZM16.475 40.595l.739 1.086-1.637.319-.116-1.405h1.014Z" fill="#406DC0"/></svg>