<svg width="39" height="47" fill="none" xmlns="http://www.w3.org/2000/svg"><path d="m19.593 35.258.627.554.387-.668-.18-.08.1-.58.358-.161.022-.54-.327-.56.188.052.013-.313-.152.042.018-.53-.18-.433.154.026.36.881.027.247.727.581.18.354.414-.314.42-.04.1-.247-.36.08-.106-.107.567-.447-.174-.34-.413-.067-.234-.2-.567-.174-.08-.173.66-.02-.44-.367.507.046.134.24.38-.126.14.447.327.007.2-.414.4.507.695-.414-.1-.367-.587-.287.22-.027.467-.594c.125-.01.25-.022.374-.033l-.4.374c-.07.127-.139.253-.207.38l.247.02.26.36.39-.211.731-.102-.053-.254.28-.04.479-.292.002-.428-.541-.675.213-.053.174.28.307.247.367-.02.508-.267.067-.36.84-.347-.233-.32.283-.515.491-.165.298.124.4-.015.177-.407.96-.644-.022-.622-.535-.343.136-.396.037.256.392.023.241-.17.419-1.16 1.278-1.527.863-.743L35 22.088l-7.068-7.221h-7.059l.127-.948-.908-1.261-.747.387.086-.768L10.946 12l-1.913.444-.433.48-.247-.16-1.996.675v.447l-.434.233-.914.908-.167.668.74.734h.2l1.009.94 1.008.074.814 1.562.087.694.534.554.08.314.32.254.147.627.307.033.44.568 1.108.547.481 1.302 1.168.614.087.353.474.42-.14.715.587.394.207.654.314-.04c.01.127.022.254.033.38l1.722 1.142-.18.387.667 1.562-.013 1.048.768.347.68.8-.18.221.334.727.187-.033.046.347.04 1.515.675-.193ZM4 30.246l.43-.332.411.332-.42.546-.216.06-.01-.44-.085-.106-.11-.06Z" fill="#406DC0"/></svg>