<svg width="39" height="47" fill="none" xmlns="http://www.w3.org/2000/svg"><path d="M5 15v15.726h20.363c1.212 0 .943.608 1.485.608.542 0 1.279.471 1.747 0 .469-.472.608.698 1.552.21.943-.49 1.213-.35 1.747.118.535.468 1.146 1.426 1.416 1.426.269 0 .573-.22.349-.699-.224-.479-.339-.664-.178-1.014.16-.349.555-.74.44-1.048-.115-.307.27-.251-.052-.975-.322-.723-.49-.559-.521-.81-.032-.252 0-.539.066-.574l.35-.185s.087-9.05.035-9.306a2.034 2.034 0 0 0-.741-.877c-.27-.168-.643.154-.573-.587.07-.741-.238-.56.489-1.097.727-.539.388-.7.388-.811 0-.112-.035-.101-.35-.101L5 15Z" fill="#406DC0"/></svg>