<svg width="39" height="47" fill="none" xmlns="http://www.w3.org/2000/svg"><path d="M36.621 29.14c.156-.219.306-.445.596-.597l.783.041-.155-.255a1.47 1.47 0 0 1-.195-.966c.038-.27.139-.532.203-.8.035-.144.067-.292.076-.44.043-.702-.16-1.368-.395-2.02-.226-.629-.506-1.241-.78-1.854-.134-.3-.223-.593-.218-.928.017-1.199.007-2.399.005-3.598 0-.122-.011-.243-.019-.398h-1.297l-.266-.329c-.062-.006-.121-.016-.181-.018-.595-.022-1.19-.035-1.784-.065-.824-.04-1.648-.083-2.47-.143-.737-.054-1.472-.136-2.207-.202a30.779 30.779 0 0 1-2.907-.422c-1.394-.26-2.767-.587-4.054-1.178-.538-.247-1.049-.532-1.429-1.028.022-.231.051-.482.067-.733.029-.47.053-.94.073-1.411.033-.805.059-1.61.092-2.415.007-.171.044-.341.047-.512.008-.355.003-.71.003-1.097-1.297-.174-2.6-.26-3.896-.402-1.297-.141-2.598-.246-3.928-.37-.031.21-.064.39-.082.569-.035.331-.057.664-.092.995-.065.604-.139 1.208-.204 1.813-.033.308-.052.618-.085.926-.068.628-.14 1.254-.21 1.882-.03.274-.05.549-.082.822-.064.559-.14 1.116-.199 1.675-.062.582-.101 1.167-.165 1.749-.084.764-.188 1.526-.27 2.29-.065.593-.11 1.189-.168 1.784-.005.053-.03.104-.054.177-.471-.028-.93-.048-1.388-.086-.688-.056-1.375-.129-2.063-.186-.435-.036-.872-.055-1.308-.084a48.648 48.648 0 0 1-.943-.073c-.711-.063-1.422-.13-2.134-.192-.53-.047-1.062-.09-1.593-.13-.086-.007-.175.008-.345.018.196.117.322.182.435.264.277.2.48.457.62.756.206.439.499.819.877 1.134.31.258.632.503.961.739.408.29.825.57 1.173.929.407.419.665.908.718 1.475.04.43.16.833.353 1.22.48.972 1.234 1.735 2.094 2.405.391.305.838.547 1.266.81.132.08.284.133.472.07.312-.375.63-.766.959-1.148.338-.391.674-.787 1.106-1.092.206-.146.418-.285.702-.201.045.038.098.072.132.117.139.184.31.241.54.163.17-.059.348-.098.523-.143.28-.073.557-.166.843-.212.503-.082.844.13.887.658.005.068 0 .138.002.207.006.268.075.518.188.765.221.485.6.832 1.045 1.126.158.104.324.199.442.27.256.6.485 1.154.73 1.704.212.477.45.937.919 1.255.173.117.306.296.432.464.473.63.834 1.32 1.154 2.03.076.169.174.34.195.516.046.394.178.763.32 1.128.204.526.55.978.968 1.365.391.362.86.632 1.367.84a5.736 5.736 0 0 0 2.263.437c.23-.003.486.007.695-.177-.286-.33-.354-.708-.28-1.109.093-.509.098-.994-.186-1.47-.215-.358-.205-.75.014-1.122.29-.492.568-.99.876-1.472.4-.627.946-1.132 1.529-1.61.739-.605 1.53-1.136 2.395-1.562.31-.152.644-.264.974-.38.317-.11.652-.181.962-.308.38-.157.721-.382.99-.691.168-.194.225-.39.094-.635-.235-.438-.157-.765.252-1.053.23-.162.484-.295.727-.442.42.294.823.549 1.311.624.279-.063.437-.248.582-.453Z" fill="#406DC0"/></svg>