<svg width="39" height="47" fill="none" xmlns="http://www.w3.org/2000/svg"><path d="M7.005 32.688c.002-6.909-.003-13.817.008-20.726l.004-2.53.002-1.267.003-.57c.003-.287-.127-.568.212-.57 1.73-.006 3.461-.012 5.191-.02 3.332-.017 6.67.018 9.998.005.015 1.653.032 3.306.02 4.959-.003.425-.243 1.572.272 1.697.245.059.6-.007.855-.007l1.37.004 1.257.002c.314.001.83-.095 1.054.104.18.16.623.075.835.076l1.455.005 2.494.008.624.001c.324.001.21.14.218.419.013.489.01.978.011 1.467.002 6.993.03 13.986.01 20.978l-.01 3.951c-1.287-.102-2.644.004-3.942.004H7.604c-.127 0-.253-.002-.38-.006-.306-.007-.19-.166-.19-.427l-.003-1.057-.005-2.114c-.004-1.462-.007-2.924-.021-4.386.004.475 0-2.093 0 0Z" fill="#406DC0"/></svg>