<svg width="39" height="47" fill="none" xmlns="http://www.w3.org/2000/svg"><path d="m9.345 18.15-.046.172-.056.114-.125.091-.133.08-.123.096-.116.114-.046.074-.042.08-.021.087-.036.336-.044.213-.394 1.274-.135.23L8 21.21v.109l.053.139.05.09.146.196.036.069.026.103.018.137-.014.431.01.24.106.688.05.199.05.134.086.131.034.067.024.076.01.098.002.123-.026.206-.068.246-.01.097.013.095.208.38.03.074.019.127.005.163-.02.33-.036.17-.598 1.557-.033.14-.018.175.002.339.02.191.06.181.082.157.024.037.023.008.046-.013.126-.057.125-.094.051-.061.05-.07.035-.086.051-.273.035-.08.046-.074.06-.053.067-.033.077-.021.081-.008.086.003.181.04.085.04.065.067.047.086.164.565.091.137.06.04.107.103.085.125c-.072 3.575-.146 7.15-.222 10.724l-.03.253-.125.547c.104.314.206.627.306.942l8.962.339v-.004l-.072-.45-.22-.318-.49-.508-.098-.17-.068-.154-.042-.175-.025-.241.008-.282.054-.18.084-.162.086-.223.08-.674.077-.274.198-.111.273-.1.11-.259.047-.712.2-.876.029-.354-.068-.403-.003-.191.07-.638.077-.086.056-.078.022-.093-.01-.091-.029-.046-.028-.03-.01-.045.022-.201.052-.16.084-.141.12-.143.137-.296.028-.353-.05-.588.088-2.67.067-.413.116-.223.397-.385.158-.265.091-.311.102-.65.038-.549.07-.164.31-.25.147-.208.601-.555.124-.251.091-.308.067-.34.025-.347.07-.33.165-.33.745-1.066.024-.116-.073-.092-.095-.098-.052-.131.07-.25.482-.882.169-.506.063-.607-.007-1.394.084-.805.256-.571.415-.341.58-.114.56.024.274-.046.214-.15.38-.49.18-.167.995-.632.299-.125.102-.141.197-.347.386-.325.225-.286.01-.278-.035-.284.077-.308.116-.08h.141l.137-.025.11-.162-.008-.158-.074-.166-.144-.223-.355-.918-.043-.232-.077-.289-.162-.217-.115-.255.049-.401.281-.578L29.93 7.91l.098-.394-.095-.253-.155-.244-.084-.375.038-.42.116-.153.194-.072-21.048.146.046.191.058.371.058.236.012.107-.007.127-.042.212-.04.132-.052.106-.19.316-.04.093-.065.2-.02.098-.019.186.008.099.017.107.055.137.05.091.055.076.215.24.031.071.027.072.01.08.004.11-.009.136-.037.228-.039.146-.105.327-.037.193-.016.36-.023.187-.186.61-.02.097-.01.091.018.352.086.577.035.137.156.35.488.826.11.252.066.233.012.093.007.15-.007.15-.034.233-.058.265-.07.188-.218.418-.035.09-.03.095-.005.113.005.128.16.712.018.162-.002.31-.039.338Z" fill="#406DC0"/></svg>