<svg width="39" height="47" fill="none" xmlns="http://www.w3.org/2000/svg"><path fill-rule="evenodd" clip-rule="evenodd" d="M6.604 29.232v-2.78l-.538-2.884-.351-.551-.319-1.712-.985-1.44-.324-1.588L4 16.197l4.456 1.616 1.313-.292.689-.986-.473-1.314 1.004-.838L9.769 13l24.881.336v15.428l.35 1.07v1.06h-7.996l-.935.453-1.622-.016-.37.256-1.825.57-1.151.51-.621-.424-2.218.792-.62-.455h-2.196l-1.824.81-1.608-.355-.543-2.454-1.013-.835-.776.262-.4-.776-.826.174-.308-.348-.7.348-.844-.174Z" fill="#406DC0"/></svg>