<svg width="39" height="47" fill="none" xmlns="http://www.w3.org/2000/svg"><path d="M15.348 8.493c.18.132.496.072.749.113a.43.43 0 0 1 .234.126c.468.525.927 1.057 1.394 1.583a.496.496 0 0 0 .194.12c1.526.595 3.052 1.188 4.582 1.773.103.04.235.034.347.016.154-.024.312-.06.449-.127.58-.284 1.193-.342 1.822-.294.11.008.216.063.325.097-.04.101-.078.203-.132.344.2.236.396.55.84.463.067-.014.14.01.208-.003.596-.118 1.085.097 1.367.6.219.39.647.627.75 1.075.048.205.029.43.008.644-.035.384-.016.755.164 1.12.19-.164.368-.327.558-.475a.58.58 0 0 1 .274-.13c.527-.047.405-.13.75.49-.13.184-.245.38-.392.548-.184.208-.175.439-.124.677a.293.293 0 0 0 .15.186c.313.14.63.278.957.388.14.048.158.107.12.226a.114.114 0 0 1-.011.023c-.386.6-.312 1.299-.417 1.96-.04.238-.053.485-.127.714-.161.497-.002.966.075 1.443.442.065.96-.212 1.19-.641.249-.465.48-.939.746-1.394.15-.258.896-.265 1.072-.023.038.053.043.152.026.221-.306 1.258-.422 2.56-.878 3.78-.193.512-.392 1.02-.619 1.516-.097.212-.154.407-.137.643.011.153-.03.323-.088.47-.232.587-.514 1.158-.709 1.756-.116.354-.139.756.052 1.112.209.394.278.802.267 1.248-.016.745.03 1.492.022 2.239-.008.841-.056 1.682-.07 2.522a8.912 8.912 0 0 0 .46 3.013c.069.21.255.38.394.564.113.147.236.286.354.429l-.058.073c-.093.01-.183.028-.275.029-1.592.022-3.18.04-4.77.065-1.754.028-3.508.06-5.262.094-1.319.026-2.639.06-3.958.09-.15.005-.245-.027-.36-.166-.164-.2-.434-.31-.638-.482-.37-.31-.735-.628-1.082-.965-.15-.146-.263-.337-.368-.522-.13-.225-.296-.37-.56-.411-.492-.076-.663-.296-.682-.778a.955.955 0 0 0-.151-.445c-.283-.455-.604-.89-.87-1.355-.07-.121-.027-.337.022-.492.07-.218.215-.414.292-.631.086-.245.031-.457-.213-.603-.297-.178-.446-.43-.513-.79-.184-.991-.432-1.973-.643-2.958-.12-.566-.476-.995-.787-1.453-.068-.101-.153-.192-.207-.3-.309-.614-.81-.996-1.45-1.209a.533.533 0 0 1-.374-.364.433.433 0 0 0-.156-.197c-.177-.13-.254-.303-.354-.496-.134-.258-.441-.456-.716-.599-.381-.2-.793-.35-1.207-.472-.413-.124-.625-.345-.725-.781-.158-.688-.276-1.374-.299-2.078-.028-.84-.065-1.68-.097-2.52a1.397 1.397 0 0 1 .001-.156c.037-.426.04-.431-.339-.61-.18-.086-.375-.136-.552-.227-.078-.039-.18-.137-.18-.21a25.698 25.698 0 0 1 .004-1.72c.027-.592.466-.954.862-1.305.243-.216.59-.311.864-.498a2.15 2.15 0 0 0 .533-.512 9.25 9.25 0 0 0 .71-1.151c.084-.161.06-.385.055-.58-.022-1.19-.055-2.38-.083-3.57 0-.024.01-.049.017-.095.552.079.697-.422.973-.717.252-.27.217-.303.701-.383 0 .13-.004.254 0 .379.01.282.155.39.429.357.267-.032.492-.124.698-.301.12-.104.28-.166.43-.231.593-.258 1.188-.508 1.716-.897.316-.232.63-.49 1.06-.505.173-.006.283.08.31.213.023.117 0 .284-.073.371-.192.232-.423.432-.636.648-.04.041-.102.102-.095.146.04.307-.15.517-.275.763-.067.131-.032.316-.045.505.634-.113 1.987-.296 2.18-.153Z" fill="#406DC0"/></svg>