<svg width="39" height="47" fill="none" xmlns="http://www.w3.org/2000/svg"><path d="m34.928 20.32-.002-.141.048-.149.03-.145-.053-.133-.282-.121-.078-.077.131-.1-.037-.099v-.086l.04-.062.085-.025v-.053l-.114.007-.103.032h-.09l-.077-.093.004-.051.037-.047.02-.058-.04-.09-.055-.023-.045.052-.033.086-.015.077h-.038l-.088-.296-.036-.087.151-.041.112-.095.032-.122-.09-.12-.062-.028-.083-.016-.073.013-.034.06-.033.027-.171-.049-.067.022-.094.056-.131-.005-.139-.051-.116-.079-.467-.478-.282-.183-.315-.023-.071.023-.057.028-.05.036-.182.221-.07.058-.11.141-.045.04-.122.003-.247-.055-.122.028-.158.08-.056.008-.121-.021-.052.005-.063.04.169.239-.079.03-.119.002-.098.03-.02.111.122.042.03.041-.029.08-.19.142-.441-.06-.209.066-.015.03-.498-.085-.15-.05-.031-.024-.027-.026-.1-.071-.222-.11-.022-.014-.013-.013-.033-.048-.005-.009-.004-.014v-.02l.001-.032.009-.03.01-.021.014-.018.05-.03.03-.012.008-.017-.012-.03-.069-.046-.056-.063-.019-.032-.044-.04-.028-.007-.024.009-.018.026-.015.029-.025.064-.033.066-.09.136-.02.036-.015.043-.004.04.007.034.026.044.006.024-.018.019-.037.014-.106.024-.031.013-.031.017-.022.02-.026.027-.02.026-.062.106-.073.104-.367.376-.06.097-.028.032-.035.027-.068.03-.052.003-.047-.008-.066-.038-.116-.112-.099-.06-.105-.04-.056-.005-.046.008-.232.119-.029.024-.024.034-.02.035-.078.199-.014.028-.018.026-.023.029-.023.023-.117.092-.068.097-.028.03-.031.023-.285.154-.172.132-.08.084-.044.067-.073.17-.024.03-.049.021-.252.044-.05.016-.684.615-.077.052-.061.031-.023-.002-.013-.023.064-4.045-6.382.002-.005-7.39-.096.026-.273.197-.103-.06-.156.004-.157.054-.11.084-.064.161.045.139.204.275.135.27.055.142.022.116-.032.18-.125.316-.01.186.017-.002.04.01.042.018.026.03.004.037-.007.088.003.039.04.178.008.107-.026.048-.06.247-.035.049-.166.137-.058.062-.13.314-.054.185-.045.283-.053.144-.132.28-.067.196-.023.152.007.329-.02.181-.047.11-.055.097-.045.136.009.053.024.065.008.076-.042.078-.078.01-.081-.045-.066-.009-.026.123.017.081.034.093.023.086-.016.066-.113.142-.04.067-.039.091-.02.082-.027.157-.033.081-.132.087-.05.067.034.096.097.109.064.093.02.105-.033.152-.097.082-.028.031-.006.035.009.09-.003.038-.071.217-.012.081-.423.243-.68.54-.198.221-.14.26-.094.121-.244.09-.11.092-.172.192-.095.063-.122.052-.135.038-.128.015-.124.049-.213.2-.145.02-.12-.088-.081-.148-.06-.138-.056-.063-.262-.001-.096.046-.462.445-.05.141-.041.305-.072.098-.049-.043-.037-.013-.036.013-.05.043-.041-.059-.134.053-.151.004-.124.036-.096.266-.294.345-.046.123-.009.098.018.292-.014.18-.049.073-.306.125-.037.004-.003.027.028.104.023.047.042.053.046.042.038.018.08.06.012.139-.03.283.038.131.057.122.003.092-.119.035-.067-.026-.11-.119-.073-.026-.064.04-.037.093-.048.189-.074.11L9.64 24l-.134.07-.115-.059-.044-.085.012-.04.032-.044.019-.105.013-.021.03-.014.031-.02.013-.046-.006-.052-.014-.042-.022-.043-.029-.123-.056-.124-.083-.095-.192-.08L9 22.987l-.114-.076-.146-.003-.193.147-.208.273-.175.303-.096.241-.042.321-.03.073-.08.137-.07.182-.116.08-.105.094-.018.183.045.133.056.107.046.129.02.198-.039.111-.01.08.057.136.025.1.014.105-.004.08-.093.128-.138.026-.294-.044-.085.073-.069.168-.13.686-.046.138-.09.136-.109.044-.46.037-.517.188-.267.027-.223-.103-.003-.005c0 .044-.002.09-.004.133l-.023.204v.028l.001.022.022.058.11.246.021.091.006.074-.015.098-.014.174.001.083.005.042.001.044-.003.038-.016.03-.025.017-.075.014-.03.01-.02.022-.008.035-.005.042.007.127-.004.04-.01.03-.019.032-.045.05-.11.081-.02.02-.011.017L5 29.55 5 29.587l.003.038.035.068.46.656.034.067.032.111.027.073.044.054.334.298.023.026.032.047.022.058.007.042-.004.03-.015.03-.077.123-.011.023.006.036.031.043.249.179.033.033.035.044.047.08.02.056.011.05.03.248.02.079.013.034.016.032.386.395.076.109.043.083.002.042.007.04.089.256.027.115.03.04.052.037.237.09.048.025.046.033.058.058.113.165.018.015.025-.015.032-.011.048.01.19.171.048.058.02.032.015.035.006.04v.044l-.005.041.042.045.082.048.485.154.075.008.18-.043.07.007.113.062.054.056.017.028.016.037.009.04.002.042-.008.043-.01.03-.007.017-.004.006-.147.116-.02.028-.016.036.003.035.011.031.025.026.218.141.022.023.02.028.016.032.01.036.008.04.003.04-.002.044-.022.185-.003.044.005.04.013.037.02.032.026.028.292.207.059.049.021.03.018.03.055.145.018.032.02.029.055.054.07.043.023.006.077.009.086-.002.134.014.053.018.037.018.032.025.026.026.023.028.082.126.05.056.03.023.219.114.152.108.074.02.372.037.146-.012.041-.017.047-.034.318-.341.041-.028.05-.025.093-.028.244-.026.044-.023.05-.04.073-.086.036-.059.025-.055.044-.126.017-.032.031-.033.05-.031.078-.006.05.011.039.023.024.028.121.175.037.039.027.025.321.203.05.041.023.026.018.028.021.056.015.021.014.013.018.01.067-.019.495-.257.636-.082.053-.018.17-.084.057-.006.049.007.085.072.035.009.042-.01.404-.239.033-.033.034-.045.04-.078.007-.054-.004-.044-.09-.165-.012-.038-.003-.041.004-.044.012-.044.016-.04.022-.036.033-.035.046-.031.085-.031.06-.007.056.003.169.038.02.008.02.016.011.02.002.061.012.027.026.017.108.024.032.013.025.02.014.028.012.029.018.02.018.01.023.003.047-.01.03-.013.55-.333.553-.26.143-.047.144-.017.045.005.061.014.022.03.009.03.005.029-.002.068.002.038.01.036.018.032.023.024.026.015.034.006.03-.003.034-.008.04-.027.182-.164.747-.423.028-.033.021-.044.002-.082-.025-.035-.07-.046-.024-.023-.015-.033-.006-.036v-.036l.015-.05.029-.052.062-.067.047-.036.039-.025.102-.048.126-.081.058-.052.02-.037.015-.046-.006-.071-.02-.04-.025-.029-.177-.09-.067-.046-.078-.075-.01-.016-.007-.017-.006-.03.028-.077.397-.744.021-.054.05-.179.01-.025c.423-.48.845-.962 1.267-1.444l.346-.674.138-.434.007-.051-.016-.079.002-.06.012-.04.02-.036.287-.265.133-.17.06-.052.136-.092.106-.108.027-.05.015-.05-.003-.039-.009-.034-.024-.076-.009-.047.013-.072.03-.055.062-.08.035-.065.025-.07.02-.043.023-.028.12-.044.063-.04.027-.043.061-.231.035-.069.099-.132.027-.047.013-.044.008-.327.018-.112.006-.02.113-.162.026-.056.013-.044.002-.044-.003-.04.003-.063.013-.076.04-.133.032-.06.04-.034.038.001.511.192.016.009.02.019.018.026.238.433.015.033.003.015-.002.024-.006.028-.026.061-.007.03.008.007.018.008 1.268.419.045.005.033-.02.028-.027c.157-.22.316-.441.475-.66l.04-.071.035-.077.09-.269.005-.022.01-.029v-.013l.01-.022.057-.257.019-.048.026-.058.054-.087.063-.064.065-.05.091-.056.047-.039.028-.033.01-.031.064-.44.014-.05.028-.062.108-.152.029-.054.016-.046.009-.04.027-.065.044-.071.259-.35.03-.03.035.003c.22.153.44.307.657.461l.045.012.035-.023.033-.04c.244-.357.488-.714.73-1.072l.033-.02h.032l.019.019.019.027.018.032.019.026.025.022.03.007.039-.001.05-.012.14-.064.047-.035.035-.035.042-.066.066-.137.037-.064.034-.031.05-.022.067-.012.098-.036.052-.03.041-.036.157-.204.033-.063.002-.03-.005-.032-.007-.029.006-.029.012-.03.102-.168.241-.29.245-.194.198-.247.03-.042.011-.032.003-.038-.003-.036-.026-.115-.006-.039-.002-.044.007-.046.012-.048.039-.125.007-.045.003-.045-.006-.083-.007-.035-.003-.034v-.033l.008-.04.014-.035.02-.034.189-.27.087-.153.028-.08.01-.047.011-.092-.003-.082-.036-.237-.003-.08.014-.063.031-.079.088-.137.084-.046c.975.79 1.95 1.581 2.927 2.37l.053.047c.201-.48.404-.961.607-1.441l.012-.03-.009-.004-.092-.154Z" fill="#406DC0"/></svg>